<?xml version="1.0" standalone="no"?>
<!DOCTYPE svg PUBLIC "-//W3C//DTD SVG 1.1//EN" "http://www.w3.org/Graphics/SVG/1.1/DTD/svg11.dtd" >
<svg>
<metadata>
Created by FontForge 20090622 at Mon Aug 19 11:58:45 2019
 By deploy user
Copyright (c) 2010 by Type The Font. All rights reserved.
</metadata>
<defs>
<font id="Balham" horiz-adv-x="550" >
  <font-face 
    font-family="Balham"
    font-weight="400"
    font-stretch="normal"
    units-per-em="1000"
    panose-1="2 0 5 3 9 0 0 2 0 3"
    ascent="800"
    descent="-200"
    x-height="430"
    cap-height="730"
    bbox="-25 -215.25 1226 1010"
    underline-thickness="50"
    underline-position="-50"
    unicode-range="U+0020-U+FB02"
  />
<missing-glyph horiz-adv-x="225" 
 />
    <glyph glyph-name=".notdef" horiz-adv-x="225" 
 />
    <glyph glyph-name=".null" horiz-adv-x="0" 
 />
    <glyph glyph-name="nonmarkingreturn" horiz-adv-x="333" 
 />
    <glyph glyph-name="space" unicode=" " horiz-adv-x="225" 
 />
    <glyph glyph-name="exclam" unicode="!" horiz-adv-x="183" 
d="M87 767q21 0 34 -17.5t13 -45.5l-16 -480q0 -12 -31 -12q-8 0 -18.5 3.5t-10.5 7.5l-19 482q0 23 13.5 42.5t34.5 19.5zM90 87q20 0 31.5 -13t11.5 -32t-11.5 -32t-31.5 -13q-18 0 -30.5 12.5t-12.5 31.5q0 20 11.5 33t31.5 13z" />
    <glyph glyph-name="quotedbl" unicode="&#x22;" horiz-adv-x="320" 
d="M238 762q17 0 31 -12.5t14 -25.5q0 -33 -14.5 -95.5t-17.5 -92.5q-1 -17 -13 -17q-13 0 -15 17q-2 31 -15 93.5t-13 94.5q0 12 14.5 25t28.5 13zM80 762q17 0 31 -12.5t14 -25.5q0 -33 -14.5 -95.5t-17.5 -92.5q-1 -17 -13 -17q-13 0 -15 17q-2 31 -15 93.5t-13 94.5
q0 12 14.5 25t28.5 13z" />
    <glyph glyph-name="numbersign" unicode="#" horiz-adv-x="625" 
d="M232 673l54 3l-30 -189l174 2l28 178l56 3l-29 -180l116 1l-15 -46l-109 -1l-30 -185l136 2l-14 -44l-129 -2l-32 -199l-54 -4l32 202l-175 -2l-31 -196l-52 -3l31 198l-125 -2l11 43l121 2l29 187l-129 -1l13 45l124 1zM248 442l-30 -187l175 3l30 185z" />
    <glyph glyph-name="dollar" unicode="$" 
d="M210 767l23 -1v-71q19 4 43 4q25 0 53 -5v76h21v-81q56 -14 114 -75q37 -40 26 -46q-1 -1 -4 -1q-8 1 -10.5 1.5t-6 1t-7 4.5l-7.5 8.5l-13 15l-19 21.5q-38 38 -73 48v-286q38 -15 62 -29q93 -52 93 -161q0 -71 -42 -122t-114 -70v-126l-22 -1v122q-34 -4 -53 -4
q-14 0 -42 2v-120l-26 -1l1 125q-67 13 -138 82q-48 46 -41 62q2 7 16 3q9 -2 23 -19q4 -4 14 -17l21 -25q36 -46 105 -66l1 336l-7 3q-29 11 -45.5 19.5t-39 27t-33.5 49t-11 73.5q0 60 39.5 103t98.5 62v78zM208 427l2 241q-91 -30 -91 -114q0 -53 22 -81t67 -46zM233 344
l-1 -333q16 -3 33 -3q30 0 62 8l1 296zM233 418q14 -5 46.5 -14.5t48.5 -15.5l1 285q-28 5 -56 5q-23 0 -40 -4v-256zM349 303v-280q104 38 104 139q0 90 -97 138z" />
    <glyph glyph-name="percent" unicode="%" horiz-adv-x="899" 
d="M266 640q-38 0 -78.5 -44t-69.5 -106q-31 -67 -31 -109q0 -27 20.5 -46t44.5 -19q75 0 129.5 68t63.5 173q-52 19 -50 75q-9 8 -29 8zM752 387q-85 0 -146 -156q-21 -54 -21 -100q0 -36 19.5 -57t56.5 -21q63 0 113 80.5t50 154.5q0 99 -72 99zM751 416q43 0 72.5 -31
t29.5 -100q0 -90 -59.5 -175.5t-144.5 -85.5q-59 0 -95.5 44.5t-36.5 105.5q0 94 76.5 168t157.5 74zM672 776q1 -1 5 -2t6 -3q7 -4 2 -11q-30 -51 -148 -266l-223 -407.5t-108 -199.5q-8 -16 -19 -18q-3 0 -20.5 -1t-22.5 -1q-8 0 -9.5 7.5t3.5 13.5q10 11 474 791
q-137 -131 -239 -126q-5 -102 -68.5 -182.5t-140.5 -80.5q-66 0 -100.5 43t-34.5 102q0 81 78.5 155t150.5 74q88 0 111 -87q63 -1 118.5 31.5t130.5 107.5q24 26 43 55q5 8 11 5z" />
    <glyph glyph-name="ampersand" unicode="&#x26;" horiz-adv-x="794" 
d="M241 376q-43 -15 -65 -62t-18 -114q4 -65 41.5 -107.5t84.5 -55.5t92 -4q22 4 34 6.5t24.5 7t15.5 5.5t19 9t25 12l-20.5 21.5t-25.5 27.5l-26.5 29l-30 33l-29.5 33t-30.5 35l-27 33t-26 33.5l-20.5 29.5t-17 28zM334 708q-94 -6 -87 -105q4 -56 17.5 -91.5t47.5 -82.5
q63 34 91.5 73.5t24.5 99.5t-26 84.5t-68 21.5zM318 738q80 6 128.5 -32.5t51.5 -92.5q8 -113 -177 -203q17 -33 48.5 -74t57 -69l67 -73l56.5 -61q35 44 51.5 106.5t13.5 107.5l55 4q-7 -16 -21.5 -66.5t-32.5 -93t-45 -74.5l150 -102l-60 -6q-85 -6 -141 43
q-80 -60 -193 -61q-62 -1 -115 15t-94 58.5t-45 108.5q-10 155 158 226q-3 7 -17 36t-20 42.5t-13 38.5t-8 48q-4 62 37 116t108 58z" />
    <glyph glyph-name="quotesingle" unicode="'" horiz-adv-x="184" 
d="M86 762q17 0 31 -12.5t14 -25.5q0 -33 -14.5 -95.5t-17.5 -92.5q-1 -17 -13 -17q-13 0 -15 17q-2 31 -15 93.5t-13 94.5q0 12 14.5 25t28.5 13z" />
    <glyph glyph-name="parenleft" unicode="(" horiz-adv-x="298" 
d="M256 737q10 -12 3 -20q-83 -87 -110 -181t-27 -262q0 -177 33 -284t109 -180q9 -9 -4 -19q-12 -10 -18 -4q-44 47 -72 83.5t-64.5 98.5t-55.5 139t-19 166q0 157 49.5 259t155.5 210q8 6 20 -6z" />
    <glyph glyph-name="parenright" unicode=")" horiz-adv-x="298" 
d="M43 737q13 13 20 6q106 -108 155.5 -210t49.5 -259q0 -89 -19 -166t-55.5 -139t-64.5 -98.5t-72 -83.5q-6 -6 -18 4q-13 10 -4 19q76 73 109 180t33 284q0 168 -27 262t-110 181q-7 8 3 20z" />
    <glyph glyph-name="asterisk" unicode="*" horiz-adv-x="520" 
d="M443 639q9 -15 0.5 -31.5t-25.5 -26.5q-17 -9 -56 -15t-72 -25q-8 -5 -13 3q-5 10 2 14q36 19 57.5 49t39.5 40q46 27 67 -8zM442 434q-9 -16 -27.5 -18.5t-33.5 7.5q-16 9 -40 39t-60 50q-9 5 -4 12q4 9 11 6q36 -20 76.5 -24.5t56.5 -13.5q41 -23 21 -58zM257 329
q-18 0 -28 14t-10 33q0 18 15.5 53.5t15.5 76.5q0 10 8 10q10 0 10 -8q0 -40 15.5 -74.5t15.5 -55.5q0 -49 -42 -49zM79 434q-9 17 -2.5 32.5t23.5 24.5q9 4 51.5 10.5t77.5 26.5q9 5 14 -2q5 -9 -3 -14q-35 -20 -57 -49.5t-40 -39.5q-43 -25 -64 11zM81 641q8 16 26 17
t33 -9q16 -9 41 -39t58 -49q8 -5 4 -13q-6 -9 -13 -6q-35 20 -72 24.5t-55 13.5q-21 10 -26.5 27.5t4.5 33.5zM261 743q18 0 28 -14t10 -33t-14.5 -55.5t-14.5 -74.5q0 -10 -10 -10t-10 8q0 40 -14.5 74t-14.5 55q0 50 40 50z" />
    <glyph glyph-name="plus" unicode="+" horiz-adv-x="592" 
d="M276 586h52v-208h209v-51h-209v-207h-52v207h-215v51h215v208z" />
    <glyph glyph-name="comma" unicode="," horiz-adv-x="196" 
d="M88 102q22 0 42 -13.5t30 -40.5q6 -16 6 -48q0 -27 -8 -46q-22 -59 -110 -122q-9 -7 -16 1q-10 11 -5 15q51 35 79 74q18 24 18 46q0 20 -21 24q-31 3 -51 17t-20 38q0 23 14.5 39t41.5 16z" />
    <glyph glyph-name="hyphen" unicode="-" horiz-adv-x="229" 
d="M34 254h82h34.5t30.5 0.5t13 0.5q14 -1 14 -11v-38q0 -6 -4.5 -10.5t-9.5 -4.5q-2 0 -11.5 0.5t-27 1.5t-39.5 1h-80q-14 0 -14 8v40q0 12 12 12z" />
    <glyph glyph-name="period" unicode="." horiz-adv-x="195" 
d="M97 102q27 0 42.5 -16.5t15.5 -40.5t-16 -41t-41 -17t-41.5 16t-16.5 39q0 26 15.5 43t41.5 17z" />
    <glyph glyph-name="slash" unicode="/" horiz-adv-x="330" 
d="M18 -45l243 805l55 -15l-244 -804z" />
    <glyph glyph-name="zero" unicode="0" 
d="M284 672q-34 0 -59.5 -15t-46 -49.5t-31.5 -97.5t-11 -154q0 -347 142 -347q25 0 47 13t44.5 45.5t35.5 100.5t13 166q0 338 -134 338zM279 704q87 0 158 -98t71 -253q0 -169 -71 -272t-156 -103q-90 0 -164.5 97.5t-74.5 271.5q0 89 24 160.5t61 112.5t76.5 62.5
t75.5 21.5z" />
    <glyph glyph-name="one" unicode="1" 
d="M296 696q7 4 10.5 1.5t1.5 -9.5v-539v-147h-5h-5h-4h-5h-5h-6h-5h-5h-6h-5h-6h-10v143q0 15 0.5 192t0.5 199q0 59 -11.5 70.5t-66.5 7.5q-10 -1 -12 8q-1 10 6 11q22 4 37 8t29 11t20.5 10.5t24.5 15.5z" />
    <glyph glyph-name="two" unicode="2" 
d="M282 701q93 -1 151 -44.5t58 -127.5q0 -39 -9.5 -70t-32 -58.5t-41 -44.5t-56.5 -47q-171 -136 -237 -229q-4 -5 -3 -9.5t5 -4.5h372l-1 -66h-443l-1 34q23 36 49 71t58.5 71l53 58l59 61l50.5 51q91 94 91 186q0 65 -36 102t-88 38q-31 1 -57.5 -10t-42.5 -26.5t-28 -31
t-18.5 -25t-8.5 -7.5l-5 2q-10 2 10 35q35 61 98 83q26 9 53 9z" />
    <glyph glyph-name="three" unicode="3" 
d="M245 709q88 5 149 -38t61 -121q0 -132 -150 -176q190 -32 190 -185q0 -84 -71 -142.5t-168 -58.5q-113 0 -192 91q-38 43 -38 67q-1 4 2 5l16 -7q42 -56 93 -86t96.5 -31t83.5 17t59.5 59t18.5 94q-4 77 -54.5 121t-112.5 44l1 26q60 0 110.5 45t50.5 113
q0 64 -43.5 99.5t-101.5 35.5q-19 0 -38 -5.5t-31 -11.5t-28 -20t-21.5 -19.5t-21 -23.5t-16.5 -19l-6 1q-4 4 1 17.5t19.5 31t34 34.5t48.5 29t59 14z" />
    <glyph glyph-name="four" unicode="4" 
d="M315 586l-243 -386l247 -2zM357 698h32v-698h-69l-1 171q-210 -2 -270 -2q-9 0 -9 8v23q0 11 7 19z" />
    <glyph glyph-name="five" unicode="5" 
d="M85 334l30 353q57 0 140.5 1.5t146 2.5t67.5 1q12 0 6 -10t-15 -37q-220 -2 -306 -2q-9 0 -10 -8q-3 -63 -22 -260q81 67 158 67q39 0 75.5 -11.5t70.5 -35.5t54.5 -68t20.5 -103q0 -107 -77.5 -173.5t-179.5 -66.5q-85 0 -153 65q-38 36 -34 52q1 6 8 5l8 -10
q105 -85 180 -77.5t117 62t42 126.5q0 101 -43.5 147t-96.5 46q-102 0 -152 -66q-10 -14 -15 -12q-4 2 -9 3t-7 2q-5 2 -4 7z" />
    <glyph glyph-name="six" unicode="6" 
d="M286 8q64 0 100 51.5t36 152.5q0 90 -33 132t-89 42q-30 0 -56 -9.5t-47 -29t-33.5 -34t-30.5 -39.5q1 -127 41 -196.5t112 -69.5zM286 -14q-101 0 -171 86.5t-70 245.5q0 104 34 193.5t97.5 144t143.5 54.5q84 0 137 -45q29 -24 18 -35q-2 -2 -6 -3l-26 16
q-78 38 -136 31t-96.5 -55t-57.5 -125t-19 -178q34 52 81.5 83t98.5 31q82 0 140.5 -56t58.5 -148q0 -97 -67.5 -168.5t-159.5 -71.5z" />
    <glyph glyph-name="seven" unicode="7" 
d="M76 631l-6 62h426q10 0 10 -19v-7.5v-6.5t-0.5 -5t-2.5 -6t-5 -8q-71 -108 -148 -294q-37 -88 -52.5 -154t-15.5 -158q0 -31 -5.5 -44t-26.5 -13q-17 0 -23 12t-6 43q0 79 23.5 173t55.5 154q79 149 165 268q-142 3 -389 3z" />
    <glyph glyph-name="eight" unicode="8" 
d="M234 338q-134 -78 -131 -179q2 -56 55.5 -103t117.5 -45q80 3 129.5 40.5t46.5 108.5q-1 35 -15.5 61t-48 47.5t-64.5 35t-90 34.5zM270 680q-60 -2 -101.5 -38t-39.5 -92q1 -52 48 -88t138 -63q38 21 59 61.5t19 83.5q-2 61 -36.5 99.5t-86.5 36.5zM263 709
q77 2 135 -34.5t62 -100.5q4 -65 -21 -101.5t-98 -82.5q82 -27 133.5 -83.5t54.5 -126.5q3 -82 -67 -139.5t-169 -60.5q-103 -4 -183 40.5t-83 125.5q-1 37 11 66.5t39.5 53.5t56.5 41.5t75 39.5q-129 53 -133 165q-3 80 50.5 138t136.5 59z" />
    <glyph glyph-name="nine" unicode="9" 
d="M264 688q-64 0 -100 -51.5t-36 -152.5q0 -90 33 -132t89 -42q30 0 55.5 9.5t47.5 29.5t33.5 33.5t30.5 39.5q-1 128 -41 197t-112 69zM264 710q101 0 171 -86t70 -245q0 -157 -81 -275t-187 -117q-98 1 -150 54q-26 25 -17 35q3 3 8 3l10 -6q78 -58 141.5 -59t103.5 47
t61.5 130t21.5 189q-34 -51 -81.5 -82t-98.5 -31q-82 0 -140.5 55.5t-58.5 147.5q0 97 67.5 168.5t159.5 71.5z" />
    <glyph glyph-name="colon" unicode=":" horiz-adv-x="195" 
d="M97 102q27 0 42.5 -16.5t15.5 -40.5t-16 -41t-41 -17t-41.5 16t-16.5 39q0 26 15.5 43t41.5 17zM97 435q27 0 42.5 -16.5t15.5 -40.5t-16 -41t-41 -17t-41.5 16t-16.5 39q0 26 15.5 43t41.5 17z" />
    <glyph glyph-name="semicolon" unicode=";" horiz-adv-x="196" 
d="M97 435q27 0 42.5 -16.5t15.5 -40.5t-16 -41t-41 -17t-41.5 16t-16.5 40q0 25 15.5 42t41.5 17zM88 102q22 0 42 -13.5t30 -40.5q6 -16 6 -48q0 -27 -8 -46q-22 -59 -110 -122q-9 -7 -16 1q-10 11 -5 15q51 35 79 74q18 24 18 46q0 20 -21 24q-31 3 -51 17t-20 38
q0 23 14.5 39t41.5 16z" />
    <glyph glyph-name="less" unicode="&#x3c;" horiz-adv-x="593" 
d="M556 561l-450 -236l455 -259v-66l-521 298v56l516 268v-61z" />
    <glyph glyph-name="equal" unicode="=" horiz-adv-x="592" 
d="M61 247h476v-51h-476v51zM61 477h476v-51h-476v51z" />
    <glyph glyph-name="greater" unicode="&#x3e;" horiz-adv-x="593" 
d="M489 325l-450 236v61l516 -268v-56l-521 -298v66z" />
    <glyph glyph-name="question" unicode="?" horiz-adv-x="403" 
d="M178 733q36 -1 75.5 -19t73 -63.5t33.5 -108.5q0 -95 -59 -146.5t-121 -51.5v-20q-1 -19 -1.5 -50t-0.5 -52q0 -22 -19 -22q-18 0 -19 22q-3 82 -3 176q0 17 14 17q59 0 106 40.5t47 102.5t-56 111t-134 19q-20 -8 -33 -20t-17 -21.5t-10 -14t-15 -0.5q-15 7 3 36
q29 47 94 61q20 4 42 4zM164 94q23 0 36.5 -14t13.5 -36q0 -21 -14 -35.5t-36 -14.5t-36 14t-14 34q0 23 13.5 37.5t36.5 14.5z" />
    <glyph glyph-name="at" unicode="@" horiz-adv-x="869" 
d="M471 469q-38 0 -74 -27t-56 -72q-53 -118 -53 -195q0 -32 16.5 -66t37.5 -34q17 0 31 4t27 15.5l21.5 19t21 29t17.5 29.5t19 37t18 36q35 68 35 143q0 81 -61 81zM505 693q151 0 248 -86.5t97 -232.5q0 -121 -82.5 -223t-171.5 -102q-106 0 -88 115q-84 -117 -161 -117
q-59 0 -90 37.5t-31 98.5q0 122 79.5 217.5t153.5 95.5q53 0 74.5 -28t22.5 -66q20 32 40 78q4 10 12 10q2 0 17.5 -1t19.5 -1q14 0 8 -10l-93 -295q-15 -30 -6.5 -68.5t42.5 -38.5q77 0 151 92t74 206q0 136 -88 214.5t-227 78.5q-99 0 -193.5 -59t-155 -162t-60.5 -220
q0 -90 34 -160.5t88 -110.5t113.5 -60t118.5 -20q212 0 357 184q7 8 17 0q12 -8 5 -16q-152 -193 -377 -193q-181 0 -302 114.5t-121 269.5q0 105 43 194t112.5 145.5t152.5 88t167 31.5z" />
    <glyph glyph-name="A" unicode="A" horiz-adv-x="766" 
d="M355 659q-124 -348 -126 -351q-3 -8 -1 -12t7 -4h249zM337 708l68 31q13 0 16 -11l256 -728h-92l-87 262h-110.5t-110.5 -0.5t-48 -0.5q-18 0 -21 -10q-32 -72 -87 -253l-44 1h2l-1 1z" />
    <glyph glyph-name="B" unicode="B" horiz-adv-x="671" 
d="M218 362v-292q0 -14 4 -23t7 -13t15 -6t15 -2h19q74 0 98 1t47 7.5t50.5 23.5t44 53t16.5 88q-1 85 -55 127.5t-137 42.5q-22 0 -67 1t-46 1q-11 0 -11 -9zM309 705q-69 0 -77 -4q-13 -5 -14 -36v-5q-1 -51 -1 -259q32 0 128 4q73 2 111.5 45t38.5 115q0 73 -45 106.5
t-141 33.5zM138 3v728h192q110 0 186.5 -44.5t76.5 -124.5q0 -36 -17 -66t-45.5 -49.5t-54.5 -32t-55 -20.5q-5 -1 -3 -4q1 -2 3 -2q93 -13 154 -61.5t61 -129.5q0 -90 -77 -143.5t-193 -53.5q-26 0 -120.5 1.5t-107.5 1.5z" />
    <glyph glyph-name="C" unicode="C" horiz-adv-x="695" 
d="M378 742q83 -2 137 -30t118 -107q6 -8 -4 -12q-4 -2 -6 -4q-1 -2 -7 -0.5t-8 4.5q-74 125 -223 119q-34 -1 -64 -11t-62 -35.5t-55 -64t-37.5 -103t-14.5 -146.5q0 -78 17 -138t42.5 -95t60.5 -57.5t66 -30t63 -7.5q92 0 147.5 45t102.5 143q1 3 5 5.5t6 1.5q1 0 4 -2
t5.5 -3.5t3.5 -1.5t2 -2t1 -5t-1 -6q-34 -98 -109 -157.5t-171 -59.5q-67 0 -129 23t-113 66.5t-81.5 116t-30.5 162.5q0 89 31 165.5t80 125t108 75.5t116 26z" />
    <glyph glyph-name="D" unicode="D" horiz-adv-x="773" 
d="M357 0h-221l1 726q9 0 102 1t149 1q37 0 79.5 -12t88 -40t82.5 -68t61 -102t24 -136q0 -89 -29.5 -161t-80.5 -117t-116.5 -68.5t-139.5 -23.5zM254 24q10 -2 62 -1t92 5q30 3 57 13t56.5 33.5t50.5 58.5t35 94.5t14 135.5q0 316 -227 336q-37 3 -129 3q-27 0 -33 -4.5
t-6 -29.5v-599q0 -35 3 -40t25 -5z" />
    <glyph glyph-name="E" unicode="E" horiz-adv-x="693" 
d="M133 2v729l513 -1v-26h-372q-24 0 -34 -8.5t-10 -31.5q0 -12 -1.5 -134.5t-1.5 -124.5q0 -13 8 -13h91v-24h-87q-11 0 -11 -8l1 -267q0 -32 9.5 -46.5t36.5 -14.5h371v-30h-513z" />
    <glyph glyph-name="F" unicode="F" horiz-adv-x="643" 
d="M134 1v729h436l-1 -29l-292 -1q-51 -11 -51 -56v-239q0 -13 8 -13h91l1 -26h-87q-11 0 -11 -6v-362z" />
    <glyph glyph-name="G" unicode="G" horiz-adv-x="757" 
d="M634 -13l-244 1q-154 1 -247 104t-93 250q0 165 103.5 279.5t234.5 123.5q49 3 91.5 -7.5t68 -28t42.5 -37t24 -33t4 -16.5q-4 -5 -12 -6q-7 -2 -11 5q-54 98 -199 96q-30 0 -59.5 -9t-62.5 -34.5t-57.5 -65.5t-41 -109t-16.5 -158q0 -90 20 -155.5t46.5 -97.5t63.5 -51
t58.5 -22t44.5 -3q104 1 141.5 14.5t37.5 51.5q0 18 -1 84.5t-1 80.5q0 18 -3.5 29t-13.5 15t-17.5 4.5t-27.5 0t-32 -0.5q-7 0 -7 6v14q0 8 7 8l159 -3v-330z" />
    <glyph glyph-name="H" unicode="H" horiz-adv-x="822" 
d="M221 357v-359h-84v732h84v-340h375v339h85v-732l-85 1v358z" />
    <glyph glyph-name="I" unicode="I" horiz-adv-x="384" 
d="M235 730v-732h-85l1 732h84z" />
    <glyph glyph-name="J" unicode="J" horiz-adv-x="393" 
d="M104 -112q78 2 78 111v691l82 43v-734q0 -71 -44.5 -107t-114.5 -36q-53 0 -101 45q-36 34 -23 50q2 3 4 4q9 6 24.5 -10.5t40.5 -37t54 -19.5z" />
    <glyph glyph-name="K" unicode="K" horiz-adv-x="781" 
d="M224 289l-1 -289h-81l-1 727l82 1v-401l392 401h48l-276 -272l321 -454h-96l-285 394z" />
    <glyph glyph-name="L" unicode="L" horiz-adv-x="654" 
d="M619 -2h-476v729h87v-655q0 -34 5.5 -39.5t38.5 -5.5h345v-29z" />
    <glyph glyph-name="M" unicode="M" horiz-adv-x="948" 
d="M138 730h92q9 0 12 -5q6 -20 236 -597l236 602h98v-731h-87v673q-249 -633 -263 -672q-3 -6 -10 -6h-10q-6 0 -8 6q-11 31 -53 138l-106 269.5l-104 264.5v-673h-33v731z" />
    <glyph glyph-name="N" unicode="N" horiz-adv-x="820" 
d="M152 732h72q11 0 16 -8l402 -563q3 -4 7 -3t4 6v568h34q0 -25 -0.5 -213.5t-0.5 -314v-170.5v-39q0 -9 -12 -9q-13 0 -18 8q-6 12 -36 54l-81 112l-102 139l-123 166.5l-120 163.5q-1 2 -4.5 2.5t-3.5 -3.5v-628h-34v732z" />
    <glyph glyph-name="O" unicode="O" horiz-adv-x="786" 
d="M398 716q-20 0 -37.5 -2t-43 -10.5t-46.5 -22t-43 -40t-37.5 -62t-25 -90t-9.5 -121.5q0 -70 10.5 -126.5t26.5 -93t39.5 -63t44 -40t46.5 -21t41 -9t32 -1.5q26 0 52 6t60.5 28t60 57.5t43.5 102t18 154.5q0 87 -17.5 154t-42.5 103.5t-58.5 59.5t-60.5 30t-53 7z
M389 746q65 0 126.5 -26t111 -72.5t79.5 -118t30 -154.5q0 -175 -99.5 -281t-240.5 -106q-138 0 -242 106t-104 259q0 91 30.5 167.5t79.5 124.5t108.5 74.5t120.5 26.5z" />
    <glyph glyph-name="P" unicode="P" horiz-adv-x="656" 
d="M227 330v-330h-85v727q9 0 91.5 0.5t138.5 0.5q36 0 75.5 -12.5t75.5 -35.5t59.5 -62t23.5 -85q0 -65 -41 -110.5t-99.5 -65t-125.5 -19.5h-47t-39 0.5t-17 0.5q-10 0 -10 -9zM504 527q0 37 -4 60.5t-16.5 48.5t-40.5 40.5t-72 23.5q-6 1 -117 1q-21 0 -24 -4t-4 -32v-41
v-72.5v-78.5v-67v-28q0 -10 10 -10q17 0 60 0.5t53 0.5q72 2 113.5 41.5t41.5 116.5z" />
    <glyph glyph-name="Q" unicode="Q" horiz-adv-x="754" 
d="M597 369q0 84 -16.5 148.5t-40.5 100.5t-55.5 59t-57.5 30.5t-50 7.5q-22 0 -42 -4t-48 -15t-50.5 -35t-42.5 -60t-31.5 -95.5t-11.5 -135.5q0 -97 18.5 -167t43 -104.5t59.5 -54t56 -23t45 -3.5q18 0 36.5 3.5t46 14.5t51 35.5t44.5 61t33.5 97.5t12.5 139zM702 373
q0 -123 -81.5 -233t-174.5 -146q2 -2 11 -9t11.5 -8.5l12 -7.5t15 -7t17 -4t23 -3t27.5 0.5t35 3.5t42 7l-1 -63q-29 2 -63 2.5t-64.5 2t-69.5 21t-78 58.5q-96 4 -169 59t-109 139t-36 183q0 86 27.5 159t73.5 120.5t104 73.5t121 26q129 0 227.5 -108t98.5 -266z" />
    <glyph glyph-name="R" unicode="R" horiz-adv-x="713" 
d="M289 705q-38 -2 -44.5 -5.5t-6.5 -24.5v-282q123 0 139 2q150 18 150 149q0 72 -32 112t-118 48q-48 4 -88 1zM147 736h212q131 0 201.5 -50t70.5 -140q0 -75 -67 -123t-147 -56q218 -333 243 -367l-117 1l-192 360h-113v-361l-91 -1v737z" />
    <glyph glyph-name="S" unicode="S" horiz-adv-x="594" 
d="M268 745q94 3 147 -28.5t82 -94.5q2 -6 -2 -9q-1 0 -4 -2t-5.5 -3t-5 0t-3.5 4q-35 60 -83.5 83t-123.5 22q-60 -1 -99.5 -37.5t-39.5 -86.5q0 -88 115 -127l76 -24t92 -33q55 -24 92.5 -73.5t37.5 -127.5q0 -92 -80 -153.5t-208 -59.5q-29 1 -62 13.5t-59.5 31t-47.5 38
t-31.5 35t-7.5 20.5q4 7 5 7q7 1 27.5 -15l44.5 -36.5t61.5 -37.5t74.5 -17q93 0 156 42t64 109q1 27 -11 50t-28.5 37.5t-46.5 29.5t-50 22l-56.5 19t-50.5 17l-38 14.5t-42 22.5t-44.5 35t-30.5 49.5t-14 68.5q0 82 61 137.5t138 57.5z" />
    <glyph glyph-name="T" unicode="T" horiz-adv-x="721" 
d="M278 703l-260 1v29h687v-29h-261h-12t-9 -1t-6.5 -1t-4.5 -3t-3 -3.5t-1.5 -5.5t-1 -6t-0.5 -8.5v-10.5l-2 -665h-84v665q0 27 -5.5 32t-36.5 6z" />
    <glyph glyph-name="U" unicode="U" horiz-adv-x="814" 
d="M134 729h88v-466q0 -122 52.5 -183.5t145.5 -61.5q120 0 172.5 64.5t52.5 167.5v479h37v-479q0 -121 -67 -193t-194 -72q-135 0 -211 62t-76 186v496z" />
    <glyph glyph-name="V" unicode="V" horiz-adv-x="747" 
d="M85 722h86l231 -620l223 620h40q-4 -9 -63.5 -169l-128 -344l-86.5 -232q-2 -6 -3.5 -7t-8.5 -1q-10 0 -14 10q-23 71 -139.5 381.5z" />
    <glyph glyph-name="W" unicode="W" horiz-adv-x="1033" 
d="M358 122l188 592l187 -588q179 596 179 597h37q-4 -9 -116.5 -370t-119.5 -377q-1 -2 -2 -5t-8 -3q-11 0 -14 10q-23 112 -168 567l-60.5 -190.5l-77 -243.5t-37.5 -131q-2 -8 -16 -8t-16 10q-9 45 -111.5 380t-112.5 361h88z" />
    <glyph glyph-name="X" unicode="X" horiz-adv-x="705" 
d="M78 720h95l191 -298l207 298h37l-227 -324l266 -396h-87l-228 332l-208 -333h-48l237 359q-200 317 -235 362z" />
    <glyph glyph-name="Y" unicode="Y" horiz-adv-x="755" 
d="M405 345l86.5 140l104.5 168.5t47 76.5h41q-11 -14 -116 -181.5t-144 -237.5v-310h-86v294l-263 435h108q0 -10 222 -385z" />
    <glyph glyph-name="Z" unicode="Z" horiz-adv-x="557" 
d="M24 699v27h494q6 0 7 -8.5t-3 -13.5l-395 -663l426 -1v-40h-519q-12 0 -15 11t3 18l230 362.5l180 307.5h-408z" />
    <glyph glyph-name="bracketleft" unicode="[" horiz-adv-x="272" 
d="M235 745v-32h-98v-825h110v-32h-183v889h171z" />
    <glyph glyph-name="backslash" unicode="\" horiz-adv-x="330" 
d="M73 760l243 -805l-54 -14l-244 804z" />
    <glyph glyph-name="bracketright" unicode="]" horiz-adv-x="272" 
d="M37 713v32h171v-889h-183v32h110v825h-98z" />
    <glyph glyph-name="asciicircum" unicode="^" horiz-adv-x="454" 
d="M224 730h18l132 -203l-14 -10l-130 128l-132 -127l-18 9z" />
    <glyph glyph-name="underscore" unicode="_" horiz-adv-x="500" 
d="M0 -78h500v-47h-500v47z" />
    <glyph glyph-name="grave" unicode="`" horiz-adv-x="333" 
d="M117 637q13 0 26.5 -13.5t45 -55t58.5 -72.5l-10 -12l-51 34.5l-43 28.5l-30 20.5t-21 18.5t-6 16q0 35 31 35z" />
    <glyph glyph-name="a" unicode="a" horiz-adv-x="456" 
d="M308 245q-31 -6 -48 -10t-46 -14.5t-44.5 -23t-28 -34.5t-12.5 -50q0 -37 21 -61.5t53 -18.5q62 12 105 28v184zM217 444q46 0 79 -16t48 -43.5t21.5 -53.5t6.5 -55v-276h-53l-12 32l-25 -10.5t-30 -12t-33.5 -8.5t-44.5 -4q-50 0 -85 31t-35 78q0 132 246 160q9 1 9 12
l1 38q-1 34 -23.5 64t-69.5 32q-35 0 -59 -10t-33.5 -22t-18 -21t-16.5 -7q-17 8 4 35q32 44 95 55q14 2 28 2z" />
    <glyph glyph-name="b" unicode="b" horiz-adv-x="536" 
d="M292 417q-34 0 -60.5 -12.5t-60.5 -46.5q0 -35 -0.5 -95t-1 -85.5t0.5 -50.5q1 -63 36 -86q37 -24 72 -24q29 0 49.5 7t41.5 27t32 63.5t11 109.5q0 193 -120 193zM104 0v758h66l-3 -376q34 38 65.5 53t72.5 15q34 0 65.5 -12t60 -36.5t46 -71t17.5 -107.5
q0 -110 -57 -173.5t-136 -63.5q-36 0 -73.5 19.5t-45.5 19.5q-31 0 -62 -31q-8 -8 -12 -5.5t-4 11.5z" />
    <glyph glyph-name="c" unicode="c" horiz-adv-x="455" 
d="M257 450q72 -2 116 -51q23 -26 13 -34q-8 -3 -46 29q-39 32 -86 31q-57 -1 -93 -49.5t-40 -140.5q-5 -107 34 -158t105 -53q82 -2 130 77q6 11 17 6q9 -6 6 -15q-19 -41 -63.5 -75.5t-107.5 -32.5q-89 2 -148 69t-55 185q4 97 70.5 155.5t147.5 56.5z" />
    <glyph glyph-name="d" unicode="d" horiz-adv-x="542" 
d="M381 58q0 3 -1 115.5t-1 186.5q-27 32 -50.5 46.5t-64.5 14.5q-54 0 -97.5 -53t-43.5 -148q0 -105 41 -153t95 -48q74 0 122 39zM381 35q-30 -30 -59.5 -39t-84.5 -9q-75 0 -135 55t-60 166q0 107 61.5 176.5t138.5 69.5q47 0 76 -16.5t61 -55.5v377l65 -1v-758l-64 -1
q-1 4 0 15t1 21z" />
    <glyph glyph-name="e" unicode="e" horiz-adv-x="472" 
d="M251 426q-46 2 -85.5 -40.5t-44.5 -117.5h231q1 69 -29.5 112.5t-71.5 45.5zM251 454q82 0 130 -62.5t48 -136.5q0 -8 -1.5 -10t-8.5 -2h-297q0 -62 15.5 -107.5t40.5 -67.5t50 -32t51 -10q83 0 132 72q8 11 16 5q12 -8 5 -17q-66 -102 -185 -102q-86 0 -145.5 62.5
t-59.5 153.5q0 104 59.5 179t149.5 75z" />
    <glyph glyph-name="f" unicode="f" horiz-adv-x="310" 
d="M174 401v-401l-65 -1v602v11q0 48 13 81.5t33 48t44.5 19t47 -0.5t40 -14t25.5 -19q23 -31 -3 -38q-6 -2 -25 10t-38 18.5t-49 -9.5q-25 -19 -25 -93q0 -21 -0.5 -86.5t-0.5 -95.5q19 0 45 0.5t45.5 0.5h20.5q7 0 7 -8v-18q0 -8 -7 -8h-18q-19 0 -45 0.5t-45 0.5z" />
    <glyph glyph-name="g" unicode="g" horiz-adv-x="513" 
d="M198 4q-55 -17 -81.5 -48.5t-21 -61.5t43.5 -52.5t100 -22.5q177 0 177 87q0 23 -14.5 39.5t-41.5 26t-51.5 14.5t-60 10t-50.5 8zM247 427q-41 0 -74.5 -30t-33.5 -105q0 -78 31.5 -107.5t71.5 -29.5q42 0 75.5 31t33.5 108q0 69 -32 101t-72 32zM245 450q72 0 125 -50
q19 38 49 47q24 7 30 -7q7 -18 -36 -38q-13 -7 -30 -12q42 -50 42 -96q0 -69 -52 -115t-131 -46q-36 0 -75 17q-20 -7 -35.5 -20.5t-15.5 -26.5t15.5 -20t53.5 -16q21 -5 81 -12.5t78 -10.5q67 -12 96 -38.5t29 -78.5q0 -57 -56.5 -94t-173.5 -37q-127 0 -184 55
q-44 44 -11 91q31 45 124 68q-120 22 -120 63q0 52 103 85q-89 49 -89 128q0 67 54.5 115.5t128.5 48.5z" />
    <glyph glyph-name="h" unicode="h" horiz-adv-x="563" 
d="M168 363q25 32 68.5 58t85.5 26q56 0 97.5 -29.5t41.5 -99.5v-318h-69v301q0 52 -28 77t-61 25q-79 0 -133 -61q1 -104 1 -343h-65v736l51 31q14 5 14 -8v-20q0 -20 -0.5 -51.5t-1 -71.5l-1 -79.5t-0.5 -76v-61.5v-35z" />
    <glyph glyph-name="i" unicode="i" horiz-adv-x="278" 
d="M112 431l52 19q14 5 14 -9v-442h-67zM146 701q20 0 33.5 -15.5t13.5 -35.5q0 -19 -12.5 -32.5t-31.5 -13.5q-23 0 -36 12.5t-13 35.5q0 19 14 34t32 15z" />
    <glyph glyph-name="j" unicode="j" horiz-adv-x="260" 
d="M184 -95q-15 -91 -122 -91q-30 0 -54 16t-29.5 32t0.5 25q17 11 36 -12q19 -22 44 -22q58 0 60 84l-1 486l52 27q14 3 14 -9v-536zM153 702q21 0 35 -15t14 -35q0 -18 -12.5 -31t-32.5 -13q-23 0 -37 12t-14 34q0 19 14 33.5t33 14.5z" />
    <glyph glyph-name="k" unicode="k" horiz-adv-x="555" 
d="M105 749l52 24q20 9 20 -8l-4 -551l86.5 77.5l112 100.5t50.5 46h47l-180 -154l202 -283h-81l-160 223q-10 14 -24 3q-7 -5 -54 -48l1 -179l-69 -1z" />
    <glyph glyph-name="l" unicode="l" horiz-adv-x="274" 
d="M111 730l50 37q15 5 15 -9v-758h-65v730z" />
    <glyph glyph-name="m" unicode="m" horiz-adv-x="821" 
d="M438 359q26 38 68 63.5t88 25.5q52 0 88.5 -32.5t36.5 -89.5v-325h-68v300q0 55 -25 79.5t-60 24.5q-66 0 -123 -69q3 -16 3 -35q0 -34 -0.5 -164.5t-0.5 -135.5h-67v300q0 104 -85 104q-65 0 -121 -70v-334h-65v421l49 28q15 3 15 -9q0 -35 1 -78q24 32 63.5 58.5
t76.5 26.5q104 0 126 -89z" />
    <glyph glyph-name="n" unicode="n" horiz-adv-x="559" 
d="M172 363q25 34 64.5 59t81.5 25q56 0 97.5 -29.5t41.5 -99.5v-317h-69v298q0 52 -28.5 78t-60.5 26q-71 0 -126 -70q1 -103 1 -333h-67v426l51 24q14 3 14 -9v-78z" />
    <glyph glyph-name="o" unicode="o" horiz-adv-x="520" 
d="M261 428q-24 0 -45 -8.5t-43 -29.5t-34.5 -65.5t-12.5 -108.5q0 -62 14 -106t36 -64.5t41.5 -29t38.5 -8.5q18 0 34.5 4t36.5 17.5t34 35t23.5 61t9.5 92.5q0 63 -13 107.5t-35 65t-42.5 29t-42.5 8.5zM258 454q88 0 154 -63t66 -169q0 -112 -65 -175t-155 -63
q-89 0 -152.5 70.5t-63.5 159.5q0 109 69 174.5t147 65.5z" />
    <glyph glyph-name="p" unicode="p" horiz-adv-x="540" 
d="M172 373q68 74 132 74q78 0 136 -53t58 -156q0 -119 -57 -185t-127 -66q-94 0 -142 66v-257h-66v652h66v-75zM172 337v-257q50 -62 120 -62q22 0 41.5 8t40 27.5t33 61.5t12.5 101q0 197 -125 197q-73 0 -122 -76z" />
    <glyph glyph-name="q" unicode="q" horiz-adv-x="512" 
d="M366 74q2 54 2 254q0 12 -6 33q-26 57 -106 57q-56 0 -94 -47t-38 -161q0 -187 124 -187q34 0 60.5 12t57.5 39zM432 392v-599l-64 25v236q-35 -34 -63.5 -49.5t-66.5 -15.5q-75 0 -135.5 54t-60.5 165q0 106 63 173t141 67q18 0 35 -5t35 -13t24 -10q73 -23 92 -28z" />
    <glyph glyph-name="r" unicode="r" horiz-adv-x="370" 
d="M105 429l51 23q6 3 9.5 0t3.5 -8l2 -56q26 53 105 63q61 8 87 -13q16 -13 1 -31q-5 -5 -18 -5t-28 5.5t-35 6t-39 -3t-38.5 -21.5t-33.5 -49q2 -326 2 -340h-69v429z" />
    <glyph glyph-name="s" unicode="s" horiz-adv-x="409" 
d="M220 450q71 -8 98 -56q16 -27 4 -35q-2 -2 -5 -1q-6 2 -14 15t-27 27t-55 20q-38 6 -63.5 -10.5t-30.5 -40.5q-5 -26 10 -44.5t47 -37.5q85 -55 104 -69q34 -24 51 -61t11 -74q-9 -52 -61.5 -81t-109.5 -22q-74 10 -123 67q-30 35 -19 50q3 4 10 4q4 0 15 -12.5l25 -28
t39.5 -31t54.5 -19.5q39 -6 66 12t33 47q6 32 -2 51.5t-32 36.5q-9 7 -44.5 25.5t-64.5 37.5q-83 54 -64 144q10 53 52 72.5t95 13.5z" />
    <glyph glyph-name="t" unicode="t" horiz-adv-x="327" 
d="M155 583q7 0 8.5 -2t0.5 -9l1 -145h79v-27h-79v-306q3 -36 15 -51t40 -16q56 -3 70 18q4 6 11 1q4 -3 2 -14q-2 -19 -37 -34t-71 -13q-41 2 -70.5 22.5t-30.5 62.5l1 330q-55 2 -58 2q-12 -2 -12 10q0 6 31 14q67 12 84 145q1 12 15 12z" />
    <glyph glyph-name="u" unicode="u" horiz-adv-x="528" 
d="M86 415l65 34q5 3 8.5 0.5t3.5 -7.5q0 -1 -3 -138.5t-3 -154.5q0 -49 24 -81.5t69 -32.5q15 0 26 1t24.5 4.5t19.5 5.5t24 9t25 10l-1 382h68v-453l-47 1q-20 -1 -20 11q0 1 1.5 12t0.5 26q-79 -56 -146 -56q-52 0 -95.5 30.5t-43.5 95.5v301z" />
    <glyph glyph-name="v" unicode="v" horiz-adv-x="496" 
d="M276 92l130 344h35l-177 -448q-4 -7 -5 -7h-15q-6 0 -8 7l-182 446h73l137 -341q2 -6 6.5 -6t5.5 5z" />
    <glyph glyph-name="w" unicode="w" horiz-adv-x="734" 
d="M62 437h69q120 -327 122 -335q1 -6 5.5 -6t6.5 6l113 307h24q109 -304 111 -311q2 -5 5 -5t5 5l121 339h34l-168 -445q-2 -8 -6 -8h-14q-3 0 -6 8q-110 302 -111 306q-4 11 -10 1l-108 -303q-3 -11 -8 -11h-13q-6 0 -8 7z" />
    <glyph glyph-name="x" unicode="x" horiz-adv-x="490" 
d="M41 433h72q5 0 35.5 -38.5l62.5 -81t35 -45.5q9 -11 18 0q1 1 13.5 18l30 40.5l35 46.5l31 40.5t14.5 19.5h31q-5 -5 -73.5 -92.5t-69.5 -88.5q-9 -9 0 -19l182 -233h-77l-140 188q-10 13 -17 4q-5 -7 -74 -97t-72 -95h-39q9 10 174 208q4 7 -2 14q-5 5 -45 55l-81 101.5
t-44 54.5z" />
    <glyph glyph-name="y" unicode="y" horiz-adv-x="497" 
d="M403 431h33q-151 -403 -163 -431q-27 -65 -49 -98q-20 -29 -43 -49t-43.5 -29t-38.5 -12t-29.5 0t-15.5 9q-6 16 -3 19t20.5 6.5t36 5.5t43.5 16t43 38q4 6 11.5 20.5l18.5 37.5t18 36l-190 431h75q138 -330 141 -338q2 -6 6.5 -6t5.5 5z" />
    <glyph glyph-name="z" unicode="z" horiz-adv-x="400" 
d="M28 430h337q12 0 12 -10q0 -12 -6 -19l-130 -180t-130 -179q-10 -10 0 -10h270v-33l-348 1q-13 0 -13 8q0 4 2 7t133.5 190.5t134.5 191.5q9 12 -3 12h-259q0 1 -0.5 7t-1 9t1.5 5z" />
    <glyph glyph-name="braceleft" unicode="{" horiz-adv-x="300" 
d="M282 742q8 0 8 -15q0 -13 -8 -13q-2 0 -14 0.5t-18 0.5q-32 -1 -57 -19.5t-24 -45.5q3 -47 14.5 -112t13.5 -88q7 -66 -27.5 -120.5t-77.5 -56.5q-3 0 -3 -3t3 -3q42 -2 72.5 -47.5t26.5 -107.5q-2 -34 -10 -106t-10 -110q-1 -32 18.5 -54t50.5 -25q9 -1 15.5 -0.5
l13.5 1t8 0.5q8 0 8 -12q0 -14 -9 -14q-38 0 -58 1q-56 4 -87.5 44.5t-29.5 96.5q2 57 13.5 133t12.5 91q5 48 -12.5 73.5t-66.5 25.5q-3 0 -9.5 -1.5t-10.5 -1.5q-12 0 -12 17q0 15 12 15q4 0 10.5 -1t9.5 -1q87 0 83 88q-1 25 -14 103t-14 109q-2 64 36 109t97 48
q16 1 46 1z" />
    <glyph glyph-name="bar" unicode="|" horiz-adv-x="250" 
d="M98 782h54v-979h-54v979z" />
    <glyph glyph-name="braceright" unicode="}" horiz-adv-x="300" 
d="M24 742q30 0 46 -1q59 -3 97 -48t36 -109q-1 -31 -14 -109t-14 -103q-4 -88 83 -88q3 0 9.5 1t10.5 1q12 0 12 -15q0 -17 -12 -17q-4 0 -10.5 1.5t-9.5 1.5q-49 0 -66.5 -25.5t-12.5 -73.5q1 -15 12.5 -91t13.5 -133q2 -56 -29.5 -96.5t-87.5 -44.5q-20 -1 -58 -1
q-9 0 -9 14q0 12 8 12q1 0 8 -0.5l13.5 -1t15.5 0.5q31 3 50.5 25t18.5 54q-2 38 -10 110t-10 106q-4 62 26.5 107.5t72.5 47.5q3 0 3 3t-3 3q-43 2 -77.5 56.5t-27.5 120.5q2 23 13.5 88t14.5 112q1 27 -24 45.5t-57 19.5q-6 0 -18 -0.5t-14 -0.5q-8 0 -8 13q0 15 8 15z
" />
    <glyph glyph-name="asciitilde" unicode="~" horiz-adv-x="496" 
d="M361 442q34 0 50.5 13t35.5 57l21 -9q-22 -62 -50 -91t-77 -29q-23 0 -50 16t-46.5 35.5t-43 35.5t-42.5 16q-39 0 -61.5 -17t-44.5 -64l-22 11q25 64 57 97.5t82 33.5q27 0 54.5 -16.5t46.5 -36t43.5 -36t46.5 -16.5z" />
    <glyph glyph-name="exclamdown" unicode="&#xa1;" horiz-adv-x="183" 
d="M96 -213q-21 0 -34 17.5t-13 45.5l19 481q0 11 28 11q9 0 21.5 -3.5t12.5 -7.5l14 -482q0 -23 -13.5 -42.5t-34.5 -19.5zM98 457q-22 0 -34.5 13.5t-12.5 34.5q0 20 13 34t33 14t33.5 -13.5t13.5 -33.5q0 -21 -12.5 -35t-33.5 -14z" />
    <glyph glyph-name="cent" unicode="&#xa2;" 
d="M356 458q-18 14 -45 14q-40 0 -71 -29t-62 -84q-56 -100 -46 -197q4 -55 46 -72q28 66 99 205t79 163zM485 712q5 9 13 5q2 -1 5.5 -3t6.5 -3q13 -8 7 -17q-15 -22 -117 -230q36 -36 40 -82q2 -23 -12 -37t-32 -14q-29 0 -47 27l-69 -140l-71 -144q16 -4 37 -4
q38 0 80.5 29.5t73.5 68.5q5 7 12 3q2 -2 8 -5q7 -7 1 -15q-30 -43 -83 -76t-98 -33q-24 0 -44 6q-6 -15 -58 -122t-56 -116q-4 -10 -17 -7q-9 2 -19 10q-8 5 -5 13l61 117.5t59 112.5q-1 1 -12.5 8t-20.5 13t-23 19t-23.5 26.5t-17.5 35t-10 44.5q-9 103 62 195
q32 41 83 71t103 30q12 0 23 -2t14.5 -3t17 -7t14.5 -7l37.5 77.5l51.5 104.5t25 51z" />
    <glyph glyph-name="sterling" unicode="&#xa3;" horiz-adv-x="698" 
d="M187 453q0 121 66 195t179 74q71 0 116 -29.5t45 -71.5q0 -26 -15 -37.5t-28 -11.5q-9 0 -16.5 3.5t-12.5 8.5t-9 13t-6 13t-4.5 13.5t-2.5 9.5q-20 64 -92 64q-26 0 -50 -7.5t-47.5 -25t-38 -51t-14.5 -80.5q0 -18 7 -83l4 -36h133v-30h-129q4 -36 12.5 -85t13.5 -90.5
t7 -84.5l37 -22q34 -20 54 -30.5t50 -19.5t59 -9q97 0 155 82l18 -15l-17 -22q-90 -113 -186 -113q-65 0 -147 60l-32 24q-11 -35 -47.5 -59t-91.5 -24q-60 0 -95.5 26t-35.5 68q0 43 37 72.5t91 29.5q32 0 68 -13q-5 46 -24 179l-7 47h-83v28h81q-2 26 -2 40zM168 -6
q29 0 47 20.5t18 54.5q0 24 -4 40q-30 42 -79 42q-31 0 -51 -18.5t-20 -45.5q0 -32 26 -62.5t63 -30.5z" />
    <glyph glyph-name="currency" unicode="&#xa4;" horiz-adv-x="551" 
d="M277 536q-56 0 -96 -40t-40 -96t40 -96t96 -40t96 40t40 96t-40 96t-96 40zM65 580l31 31l70 -70q49 39 111 39t109 -38l69 69l31 -31l-68 -69q39 -49 39 -111q0 -61 -39 -111l68 -68l-31 -31l-68 68q-49 -38 -110 -38q-62 0 -112 39l-69 -69l-31 31l69 69
q-37 50 -37 110q0 62 38 110z" />
    <glyph glyph-name="yen" unicode="&#xa5;" horiz-adv-x="755" 
d="M405 365q31 50 81.5 138.5l85 150t41.5 75.5h48q-9 -11 -101.5 -166.5l-135.5 -231.5v-48h193v-29h-193v-91h193v-29h-193v-134h-86v134h-197v29h197v91h-197v29h197v32l-239 414h103z" />
    <glyph glyph-name="brokenbar" unicode="&#xa6;" horiz-adv-x="500" 
d="M223 262h54v-449h-54v449zM223 782h54v-429h-54v429z" />
    <glyph glyph-name="section" unicode="&#xa7;" horiz-adv-x="530" 
d="M247 423q-45 10 -89.5 -13t-44.5 -62q0 -41 40 -83q11 -11 37.5 -30.5t63.5 -44.5l37 -26q55 -4 94 16t39 67q0 11 -2.5 21t-8.5 20t-10.5 16.5t-15 15.5l-14.5 12.5t-15.5 12.5t-12.5 10q-16 12 -52.5 37zM265 743q99 0 133 -58q18 -31 6 -50q-12 -18 -35 10
q-7 9 -14 22q0 25 -24.5 38t-62.5 13q-45 0 -80.5 -26.5t-35.5 -61.5q0 -10 2 -19t4 -16t7 -14.5t8 -12.5t11 -12t11 -10t13 -9.5t12 -8t13 -8.5t12 -7q11 -7 39 -23.5l43 -26t35 -24t33 -26.5q73 -70 73 -139q0 -63 -41.5 -96.5t-81.5 -33.5h-30q63 -36 93 -84.5t30 -100.5
q0 -59 -50 -99.5t-106 -40.5q-124 0 -157 57q-18 30 -2 51q16 19 37 -1q9 -10 17 -27q0 -24 24 -39t64 -15q51 0 90 28t39 70q0 67 -92 121t-158 108q-74 61 -74 153q0 41 27.5 70.5t59 40t57.5 9.5q-34 27 -52.5 43.5t-36.5 46.5t-18 61q0 67 46 107t112 40z" />
    <glyph glyph-name="dieresis" unicode="&#xa8;" horiz-adv-x="333" 
d="M85 625q19 0 32 -13t13 -32q0 -21 -12.5 -33t-32.5 -12q-19 0 -32 13.5t-13 31.5q0 20 13 32.5t32 12.5zM248 625q19 0 32 -13t13 -32q0 -21 -12.5 -33t-32.5 -12q-19 0 -32 13.5t-13 31.5q0 20 13 32.5t32 12.5z" />
    <glyph glyph-name="copyright" unicode="&#xa9;" horiz-adv-x="780" 
d="M529 454q3 -4 -4.5 -6.5t-10.5 -2.5q-6 -3 -10 4q-21 33 -53.5 59t-66.5 26q-49 0 -85 -39t-36 -132q0 -86 38.5 -120.5t87.5 -34.5q48 0 76.5 21t53.5 68q5 8 12 5q4 -1 11 -7q5 -4 1 -8q-19 -50 -61 -80t-95 -30q-79 0 -136 48.5t-57 136.5q0 87 58.5 142t127.5 55
q79 0 149 -105zM377 656q-118 0 -202 -84t-84 -202t84 -202t202 -84t202 84t84 202t-84 202t-202 84zM377 694q133 0 228.5 -95t95.5 -229t-95.5 -229t-228.5 -95q-134 0 -229 95t-95 229t95 229t229 95z" />
    <glyph glyph-name="ordfeminine" unicode="&#xaa;" horiz-adv-x="372" 
d="M219 581q-21 -3 -34.5 -6.5t-30 -11t-25 -20t-8.5 -29.5q0 -18 10.5 -28.5t29.5 -10.5q25 0 58 27v79zM262 505l6 -53q-33 0 -45 32q-37 -34 -79 -34q-31 0 -52 15t-21 41q0 41 44.5 63.5t101.5 28.5q3 2 3 4q0 18 -0.5 26t-3 21t-9.5 18t-18 5q-8 0 -15 -2t-11 -3.5
t-9.5 -5t-7.5 -4.5q-44 -22 -61 -8q-12 10 11 24q31 18 99 18q32 0 49 -12t17 -30q0 -12 0.5 -75.5t0.5 -68.5z" />
    <glyph glyph-name="logicalnot" unicode="&#xac;" horiz-adv-x="592" 
d="M61 448h476v-221h-55v170h-421v51z" />
    <glyph glyph-name="registered" unicode="&#xae;" horiz-adv-x="780" 
d="M375 532q-13 0 -20 -0.5t-17.5 -3t-15.5 -8t-5 -15.5v-125h32q33 0 40 1q29 3 50.5 21t21.5 50q0 80 -86 80zM230 191q-16 0 -16 11q0 10 12 11q20 2 28 4q11 2 11 21v266q0 17 -6.5 21t-28.5 4q-14 0 -14 11q0 12 15 12h9t21 -0.5t32 -0.5q21 0 52.5 1t35.5 1
q67 0 104 -28.5t37 -72.5q0 -36 -27.5 -58.5t-65.5 -31.5q64 -114 75 -128q15 -20 43 -22q10 -2 10 -10t-11 -8h-76q-3 0 -4 2l-93 163l-56 -1q0 -28 -0.5 -70.5t-0.5 -47.5q0 -28 45 -28q13 0 13 -8q0 -11 -12 -11h-49q-11 0 -31.5 -0.5t-35.5 -0.5zM377 656
q-118 0 -202 -84t-84 -202t84 -202t202 -84t202 84t84 202t-84 202t-202 84zM377 694q133 0 228.5 -95t95.5 -229t-95.5 -229t-228.5 -95q-134 0 -229 95t-95 229t95 229t229 95z" />
    <glyph glyph-name="degree" unicode="&#xb0;" horiz-adv-x="332" 
d="M166 660q-35 0 -60 -25t-25 -60t25 -60t60 -25t60 25t25 60t-25 60t-60 25zM166 701q52 0 89 -37t37 -89t-37 -89t-89 -37t-89 37t-37 89t37 89t89 37z" />
    <glyph glyph-name="plusminus" unicode="&#xb1;" horiz-adv-x="592" 
d="M61 68h476v-51h-476v51zM276 586h52v-208h209v-51h-209v-207h-52v207h-215v51h215v208z" />
    <glyph glyph-name="twosuperior" unicode="&#xb2;" horiz-adv-x="365" 
d="M302 430q10 0 10 -7v-2l-25 -89q-2 -2 -3 -2h-237l-3 3v18v1q16 24 39.5 50t37.5 40l44 42t36 34q52 49 52 97q0 34 -19.5 53t-47.5 19q-33 0 -55.5 -11.5t-22.5 -27.5q0 -9 8.5 -20.5t8.5 -21.5q0 -31 -31 -31q-14 0 -26 9.5t-12 26.5q0 38 38.5 67t89.5 29
q55 0 89.5 -24t34.5 -70q0 -27 -12.5 -50t-26 -35t-42.5 -33q-98 -70 -137 -121q-2 -2 -2 -3t1 -1h132q6 0 12 1t11 2t10 4.5t8 5t7 6.5t6 6.5t6 7.5t4.5 7.5t5 8t4.5 7.5q2 4 7 4z" />
    <glyph glyph-name="threesuperior" unicode="&#xb3;" horiz-adv-x="362" 
d="M303 626q0 -64 -88 -93q102 -20 102 -98q0 -46 -42 -77.5t-99 -31.5q-64 0 -94.5 25t-30.5 51q0 15 10.5 24.5t22.5 9.5q33 0 33 -26q0 -10 -4.5 -19t-4.5 -13q0 -35 67 -35q35 0 61 21.5t26 66.5q0 46 -26 69t-63 23q-8 0 -19 -2.5t-15 -2.5q-15 0 -15 14t15 14
q5 0 14.5 -2t18.5 -2q34 0 55.5 20t21.5 61q0 36 -20 54t-49 18q-25 0 -41 -10t-16 -24q0 -5 3 -12.5t3 -14.5q0 -28 -30 -28t-30 29t34.5 53t77.5 24q52 0 87 -22t35 -64z" />
    <glyph glyph-name="acute" unicode="&#xb4;" horiz-adv-x="333" 
d="M219 637q31 0 31 -35q0 -8 -6 -16t-21 -18.5l-30 -20.5l-43 -28.5l-51 -34.5l-10 12q20 23 40 48.5l31 40t22.5 28t20 19t16.5 5.5z" />
    <glyph glyph-name="mu" unicode="&#xb5;" horiz-adv-x="622" 
d="M60 -160q-11 0 -19 10t-8 25q0 4 2 19.5t3 28.5q4 56 10 103t15.5 104t15.5 101l28 216h72l-23 -205q-4 -40 -4 -60q0 -65 27 -108.5t71 -43.5q10 0 22 3t29.5 16t32.5 33t29 59t20 91l26 215h68l-27 -260q-2 -26 -2 -39q0 -46 17.5 -77t47.5 -31q39 0 79 71l15 -6
q-45 -113 -125 -113q-45 0 -72.5 36.5t-27.5 98.5v1q-22 -76 -93 -116q-40 -20 -77 -20q-55 0 -86 39.5t-33 104.5q-10 -92 -10 -190q0 -52 2 -60t2 -9q0 -37 -27 -37z" />
    <glyph glyph-name="mu" unicode="&#x3bc;" horiz-adv-x="622" 
d="M60 -160q-11 0 -19 10t-8 25q0 4 2 19.5t3 28.5q4 56 10 103t15.5 104t15.5 101l28 216h72l-23 -205q-4 -40 -4 -60q0 -65 27 -108.5t71 -43.5q10 0 22 3t29.5 16t32.5 33t29 59t20 91l26 215h68l-27 -260q-2 -26 -2 -39q0 -46 17.5 -77t47.5 -31q39 0 79 71l15 -6
q-45 -113 -125 -113q-45 0 -72.5 36.5t-27.5 98.5v1q-22 -76 -93 -116q-40 -20 -77 -20q-55 0 -86 39.5t-33 104.5q-10 -92 -10 -190q0 -52 2 -60t2 -9q0 -37 -27 -37z" />
    <glyph glyph-name="paragraph" unicode="&#xb6;" horiz-adv-x="536" 
d="M507 766q8 0 8 -8v-21q0 -9 -9 -9l-56 2v-219v-234.5t0.5 -206t0.5 -155v-61.5q0 -11 -8 -11q-5 0 -12.5 0.5t-13.5 0.5q-8 0 -8 12v874h-94q2 -864 2 -874q0 -9 -1.5 -11.5t-8.5 -2.5h-23q-6 0 -7.5 2.5t-1.5 11.5v46t0.5 111.5t0.5 144v158v139.5h-52q-155 0 -155 154
q0 50 16 83t45.5 48t59 19.5t67.5 3.5q19 0 79 0.5t115 1.5t56 1z" />
    <glyph glyph-name="periodcentered" unicode="&#xb7;" horiz-adv-x="235" 
d="M117 372q27 0 42.5 -16.5t15.5 -40.5t-16 -41t-41 -17t-41.5 16t-16.5 39q0 26 15.5 43t41.5 17z" />
    <glyph glyph-name="cedilla" unicode="&#xb8;" horiz-adv-x="333" 
d="M67 -158l17 17q28 -19 71 -19q14 0 27.5 10t13.5 23q0 39 -60 39l26 88h33l-22 -63q34 -1 55 -17.5t21 -38.5q0 -26 -30.5 -45.5t-65.5 -19.5q-46 0 -86 26z" />
    <glyph glyph-name="onesuperior" unicode="&#xb9;" horiz-adv-x="346" 
d="M106 653q-8 0 -8 9q0 6 5 6q15 3 26 7t16.5 7t16 10l18.5 12q2 1 6 1q7 0 7 -7v-1q-3 -17 -2 -356h-44v276q0 24 -2.5 31.5t-11.5 5.5q-6 -1 -27 -1z" />
    <glyph glyph-name="ordmasculine" unicode="&#xba;" horiz-adv-x="373" 
d="M185 684q-75 0 -75 -109q0 -60 23.5 -84.5t48.5 -24.5q77 0 77 110q0 62 -22.5 85t-51.5 23zM313 578q0 -60 -38.5 -94.5t-91.5 -34.5t-90 38t-37 87q0 58 40.5 93.5t87.5 35.5q52 0 90.5 -34t38.5 -91z" />
    <glyph glyph-name="onequarter" unicode="&#xbc;" horiz-adv-x="676" 
d="M519 290l-134 -195l136 -1zM567 357v-358l-46 3v73q-115 -1 -154 -1q-8 0 -8 7v12q0 7 5 12q13 15 24 30l23.5 33.5l49 71.5l82.5 118q1 1 3 1h18q3 0 3 -2zM99 706q-8 0 -8 9q0 6 5 6q20 4 29.5 7.5t23 12.5t21.5 13q2 2 6 2q7 0 7 -7v-1q-3 -16 -3 -135q0 -16 1 -86
t1 -105l-46 -1q0 8 0.5 121.5t0.5 125.5q0 24 -1.5 31t-9.5 8q-5 1 -14.5 0t-12.5 -1zM128 -49l400 807l36 -18l-401 -806z" />
    <glyph glyph-name="onehalf" unicode="&#xbd;" horiz-adv-x="676" 
d="M620 20v-39q-1 -1 -253 -1l-3 3v18v1q16 24 39.5 50t37.5 40l44 42t36 34q52 49 52 97q0 34 -19.5 53t-47.5 19q-56 0 -78 -39l-15 9l9 11q8 12 15 18.5t25 13.5t42 7q55 0 89.5 -24t34.5 -70q0 -27 -12.5 -50t-26 -35t-42.5 -33q-98 -70 -137 -121q-2 -2 -2 -3t1 -1h211
zM98 -49l400 807l36 -18l-401 -806zM99 706q-8 0 -8 9q0 6 5 6q20 4 29.5 7.5t23 12.5t21.5 13q2 2 6 2q7 0 7 -7v-1q-3 -16 -3 -135q0 -16 1 -86t1 -105l-46 -1q0 8 0.5 121.5t0.5 125.5q0 24 -1.5 31t-9.5 8q-5 1 -14.5 0t-12.5 -1z" />
    <glyph glyph-name="threequarters" unicode="&#xbe;" horiz-adv-x="676" 
d="M283 675q0 -64 -88 -93q102 -20 102 -98q0 -46 -42 -78t-99 -32q-73 0 -116 43q-23 23 -12 32q1 1 3 2q5 2 9.5 -5l11.5 -17.5t33.5 -21.5t69.5 -15q34 -3 60.5 19.5t26.5 68.5t-26 69t-63 23q-8 0 -19 -2.5t-15 -2.5q-15 0 -15 14t15 14q5 0 14.5 -2t18.5 -2
q34 0 55.5 20t21.5 61q0 36 -20 54t-49 18q-32 0 -57.5 -16t-38 -30.5t-15.5 -13.5q-23 7 6 34q38 35 87 42q10 1 19 1q54 -2 88 -23.5t34 -62.5zM128 -49l400 807l36 -18l-401 -806zM519 290l-134 -195l136 -1zM567 357v-358l-46 3v73q-115 -1 -154 -1q-8 0 -8 7v12
q0 7 5 12q13 15 24 30l23.5 33.5l49 71.5l82.5 118q1 1 3 1h18q3 0 3 -2z" />
    <glyph glyph-name="questiondown" unicode="&#xbf;" horiz-adv-x="403" 
d="M261 -214q-25 0 -56.5 11.5t-62.5 33t-52 60.5t-21 87q0 95 59 146.5t121 51.5l1 20q0 19 0.5 50t0.5 52q0 13 4.5 17.5t14.5 4.5q18 0 19 -22q3 -81 3 -176q0 -17 -14 -17q-59 0 -106 -40.5t-47 -102.5q0 -52 36 -89t88 -41q27 -2 49 8t34 25t20.5 30t14 23t9.5 4
q8 -8 8.5 -24.5t-8 -35.5t-22.5 -36.5t-39 -29t-54 -10.5zM265 418q-27 0 -42.5 16.5t-15.5 40.5t16 41t41 17t41.5 -16t16.5 -39q0 -26 -15.5 -43t-41.5 -17z" />
    <glyph glyph-name="Agrave" unicode="&#xc0;" horiz-adv-x="768" 
d="M357 659q-124 -348 -126 -351q-3 -8 -1 -12t7 -4h249zM339 708l68 31q13 0 16 -11l256 -728h-92l-87 262h-110.5t-110.5 -0.5t-48 -0.5q-18 0 -21 -10q-32 -72 -87 -253l-44 1h2l-1 1zM337 897q13 0 26.5 -13.5t45 -55t58.5 -72.5l-10 -12l-51 34.5l-43 28.5l-30 20.5
t-21 18.5t-6 16q0 35 31 35z" />
    <glyph glyph-name="Aacute" unicode="&#xc1;" horiz-adv-x="768" 
d="M357 659q-124 -348 -126 -351q-3 -8 -1 -12t7 -4h249zM339 708l68 31q13 0 16 -11l256 -728h-92l-87 262h-110.5t-110.5 -0.5t-48 -0.5q-18 0 -21 -10q-32 -72 -87 -253l-44 1h2l-1 1zM429 907q31 0 31 -35q0 -8 -6 -16t-21 -18.5l-30 -20.5l-43 -28.5l-51 -34.5l-10 12
q20 23 40 48.5l31 40t22.5 28t20 19t16.5 5.5z" />
    <glyph glyph-name="Acircumflex" unicode="&#xc2;" horiz-adv-x="768" 
d="M357 659q-124 -348 -126 -351q-3 -8 -1 -12t7 -4h249zM339 708l68 31q13 0 16 -11l256 -728h-92l-87 262h-110.5t-110.5 -0.5t-48 -0.5q-18 0 -21 -10q-32 -72 -87 -253l-44 1h2l-1 1zM383 890h18l123 -173l-16 -7l-116 101l-124 -100l-18 6z" />
    <glyph glyph-name="Atilde" unicode="&#xc3;" horiz-adv-x="768" 
d="M357 659q-124 -348 -126 -351q-3 -8 -1 -12t7 -4h249zM339 708l68 31q13 0 16 -11l256 -728h-92l-87 262h-110.5t-110.5 -0.5t-48 -0.5q-18 0 -21 -10q-32 -72 -87 -253l-44 1h2l-1 1zM470 820q22 0 35 8.5t27 35.5l10 -4q-35 -90 -96 -90q-36 0 -79.5 30t-62.5 30
q-25 0 -41.5 -11t-38.5 -45l-10 6q24 49 47.5 74t56.5 25q34 0 80.5 -29.5t71.5 -29.5z" />
    <glyph glyph-name="Adieresis" unicode="&#xc4;" horiz-adv-x="768" 
d="M357 659q-124 -348 -126 -351q-3 -8 -1 -12t7 -4h249zM339 708l68 31q13 0 16 -11l256 -728h-92l-87 262h-110.5t-110.5 -0.5t-48 -0.5q-18 0 -21 -10q-32 -72 -87 -253l-44 1h2l-1 1zM305 865q19 0 32 -13t13 -32q0 -21 -12.5 -33t-32.5 -12q-19 0 -32 13.5t-13 31.5
q0 20 13 32.5t32 12.5zM468 865q19 0 32 -13t13 -32q0 -21 -12.5 -33t-32.5 -12q-19 0 -32 13.5t-13 31.5q0 20 13 32.5t32 12.5z" />
    <glyph glyph-name="Aring" unicode="&#xc5;" horiz-adv-x="768" 
d="M357 659q-124 -348 -126 -351q-3 -8 -1 -12t7 -4h249zM339 708l68 31q13 0 16 -11l256 -728h-92l-87 262h-110.5t-110.5 -0.5t-48 -0.5q-18 0 -21 -10q-32 -72 -87 -253l-44 1h2l-1 1zM377 906q-25 0 -43 -18t-18 -43t18 -43t43 -18t43 18t18 43t-18 43t-43 18zM377 935
q37 0 63.5 -26.5t26.5 -63.5t-26.5 -63.5t-63.5 -26.5t-63.5 26.5t-26.5 63.5t26.5 63.5t63.5 26.5z" />
    <glyph glyph-name="AE" unicode="&#xc6;" horiz-adv-x="1046" 
d="M495 640l30 49q-5 15 -32 15h-34q-10 0 -10 12q0 14 12 14h98h69h73.5h69t55.5 0.5t40.5 0.5h16.5q7 0 22.5 1t18.5 1q10 0 16 -10q1 -2 14 -35.5l26.5 -68t14.5 -36.5q6 -13 1 -15q-2 -1 -5 -3.5t-4 -3.5q-9 -6 -12 -1q-42 60 -79 92t-99 46q-19 5 -94 5q-17 0 -37 -3
q-19 -4 -31.5 -18t-12.5 -33q0 -12 -1 -127t-1 -117q0 -13 8 -13h84q102 0 127 98q2 6 9 6q4 0 16 -2q5 0 4 -8q0 -70 1 -100q0 -101 2 -125q0 -9 -6 -10q-3 -1 -8 -1.5t-8 -0.5q-10 0 -11 7q-10 54 -40.5 78t-84.5 25h-80q-11 0 -11 -6v-260q0 -29 19 -47t49 -18h73
q26 0 61 8q48 13 104.5 57.5t76.5 82.5q3 5 11 5q2 0 5.5 -2t4.5 -2q5 0 3 -10q-1 -3 -26.5 -73t-25.5 -72q-4 -20 -17 -20q-140 -2 -377 -2q-10 0 -77 -1t-70 -1q-12 0 -12 12q0 13 12 13q24 3 49 3q24 2 38 18t16 38q1 14 1 180h-99.5t-98.5 -0.5t-43 -0.5q-17 0 -24 -10
q-77 -122 -79 -126q-31 -51 -15.5 -76t64.5 -26q11 0 11 -11q0 -12 -12 -12h-5.5t-12.5 0.5t-20 0.5h-32.5h-45.5q-33 0 -55.5 -0.5t-31 -1t-12.5 -0.5q-9 0 -11 2.5t-2 8.5q0 12 12 12q66 0 119 84zM540 659l-92.5 -144l-88.5 -136t-45 -71q-9 -16 1 -16h225v367z" />
    <glyph glyph-name="Ccedilla" unicode="&#xc7;" horiz-adv-x="695" 
d="M378 742q83 -2 137 -30t118 -107q6 -8 -4 -12q-4 -2 -6 -4q-1 -2 -7 -0.5t-8 4.5q-74 125 -223 119q-34 -1 -64 -11t-62 -35.5t-55 -64t-37.5 -103t-14.5 -146.5q0 -78 17 -138t42.5 -95t60.5 -57.5t66 -30t63 -7.5q92 0 147.5 45t102.5 143q1 3 5 5.5t6 1.5q1 0 4 -2
t5.5 -3.5t3.5 -1.5t2 -2t1 -5t-1 -6q-34 -98 -109 -157.5t-171 -59.5q-67 0 -129 23t-113 66.5t-81.5 116t-30.5 162.5q0 89 31 165.5t80 125t108 75.5t116 26zM287 -158l17 17q28 -19 71 -19q14 0 27.5 10t13.5 23q0 39 -60 39l26 88h33l-22 -63q34 -1 55 -17.5t21 -38.5
q0 -26 -30.5 -45.5t-65.5 -19.5q-46 0 -86 26z" />
    <glyph glyph-name="Egrave" unicode="&#xc8;" horiz-adv-x="675" 
d="M133 2v729l513 -1v-26h-372q-24 0 -34 -8.5t-10 -31.5q0 -12 -1.5 -134.5t-1.5 -124.5q0 -13 8 -13h91v-24h-87q-11 0 -11 -8l1 -267q0 -32 9.5 -46.5t36.5 -14.5h371v-30h-513zM297 897q13 0 26.5 -13.5t45 -55t58.5 -72.5l-10 -12l-51 34.5l-43 28.5l-30 20.5t-21 18.5
t-6 16q0 35 31 35z" />
    <glyph glyph-name="Eacute" unicode="&#xc9;" horiz-adv-x="675" 
d="M133 2v729l513 -1v-26h-372q-24 0 -34 -8.5t-10 -31.5q0 -12 -1.5 -134.5t-1.5 -124.5q0 -13 8 -13h91v-24h-87q-11 0 -11 -8l1 -267q0 -32 9.5 -46.5t36.5 -14.5h371v-30h-513zM419 907q31 0 31 -35q0 -8 -6 -16t-21 -18.5l-30 -20.5l-43 -28.5l-51 -34.5l-10 12
q20 23 40 48.5l31 40t22.5 28t20 19t16.5 5.5z" />
    <glyph glyph-name="Ecircumflex" unicode="&#xca;" horiz-adv-x="675" 
d="M133 2v729l513 -1v-26h-372q-24 0 -34 -8.5t-10 -31.5q0 -12 -1.5 -134.5t-1.5 -124.5q0 -13 8 -13h91v-24h-87q-11 0 -11 -8l1 -267q0 -32 9.5 -46.5t36.5 -14.5h371v-30h-513zM343 930h18l123 -173l-16 -7l-116 101l-124 -100l-18 6z" />
    <glyph glyph-name="Edieresis" unicode="&#xcb;" horiz-adv-x="675" 
d="M133 2v729l513 -1v-26h-372q-24 0 -34 -8.5t-10 -31.5q0 -12 -1.5 -134.5t-1.5 -124.5q0 -13 8 -13h91v-24h-87q-11 0 -11 -8l1 -267q0 -32 9.5 -46.5t36.5 -14.5h371v-30h-513zM270 865q19 0 32 -13t13 -32q0 -21 -12.5 -33t-32.5 -12q-19 0 -32 13.5t-13 31.5
q0 20 13 32.5t32 12.5zM433 865q19 0 32 -13t13 -32q0 -21 -12.5 -33t-32.5 -12q-19 0 -32 13.5t-13 31.5q0 20 13 32.5t32 12.5z" />
    <glyph glyph-name="Igrave" unicode="&#xcc;" horiz-adv-x="384" 
d="M235 730v-732h-85l1 732h84zM117 897q13 0 26.5 -13.5t45 -55t58.5 -72.5l-10 -12l-51 34.5l-43 28.5l-30 20.5t-21 18.5t-6 16q0 35 31 35z" />
    <glyph glyph-name="Iacute" unicode="&#xcd;" horiz-adv-x="384" 
d="M235 730v-732h-85l1 732h84zM259 897q31 0 31 -35q0 -8 -6 -16t-21 -18.5l-30 -20.5l-43 -28.5l-51 -34.5l-10 12q20 23 40 48.5l31 40t22.5 28t20 19t16.5 5.5z" />
    <glyph glyph-name="Icircumflex" unicode="&#xce;" horiz-adv-x="384" 
d="M235 730v-732h-85l1 732h84zM183 930h18l123 -173l-16 -7l-116 101l-124 -100l-18 6z" />
    <glyph glyph-name="Idieresis" unicode="&#xcf;" horiz-adv-x="384" 
d="M235 730v-732h-85l1 732h84zM113 865q19 0 32 -13t13 -32q0 -21 -12.5 -33t-32.5 -12q-19 0 -32 13.5t-13 31.5q0 20 13 32.5t32 12.5zM276 865q19 0 32 -13t13 -32q0 -21 -12.5 -33t-32.5 -12q-19 0 -32 13.5t-13 31.5q0 20 13 32.5t32 12.5z" />
    <glyph glyph-name="Eth" unicode="&#xd0;" horiz-adv-x="773" 
d="M60 393h90q17 0 71 0.5t101 0.5h48q14 0 14 -11v-13q0 -6 -4.5 -10t-9.5 -4q-2 0 -47 1t-97.5 1.5t-74.5 0.5q-19 0 -39.5 -0.5t-34.5 -0.5h-15q-13 0 -13 8v16q0 11 11 11zM357 0q-69 0 -132 1t-67 1q-17 0 -57.5 -1t-53.5 -1q-7 0 -9 3t-2 12q0 10 11 10q23 0 53 8
q40 11 40 68q0 15 -1.5 269.5t-1.5 267.5q0 42 -44 55q-20 5 -41 5q-17 0 -17 14q0 15 12 15q4 0 21 -0.5t47 -0.5h65q9 0 80.5 1t127.5 1q37 0 79.5 -12t88 -40t82.5 -68t61 -102t24 -136q0 -89 -29.5 -161t-80.5 -117t-116.5 -68.5t-139.5 -23.5zM284 24q41 -5 124 4
q30 3 57 13t56.5 33.5t50.5 58.5t35 94.5t14 135.5q0 316 -227 336q-50 4 -91 4q-78 0 -78 -65q0 -15 -0.5 -265.5t-0.5 -276.5q0 -69 60 -72z" />
    <glyph glyph-name="Ntilde" unicode="&#xd1;" horiz-adv-x="820" 
d="M152 732h72q11 0 16 -8l402 -563q3 -4 7 -3t4 6v568h34q0 -25 -0.5 -213.5t-0.5 -314v-170.5v-39q0 -9 -12 -9q-13 0 -18 8q-6 12 -36 54l-81 112l-102 139l-123 166.5l-120 163.5q-1 2 -4.5 2.5t-3.5 -3.5v-628h-34v732zM495 820q22 0 35 8.5t27 35.5l10 -4
q-35 -90 -96 -90q-36 0 -79.5 30t-62.5 30q-25 0 -41.5 -11t-38.5 -45l-10 6q24 49 47.5 74t56.5 25q35 0 81 -29.5t71 -29.5z" />
    <glyph glyph-name="Ograve" unicode="&#xd2;" horiz-adv-x="786" 
d="M398 716q-20 0 -37.5 -2t-43 -10.5t-46.5 -22t-43 -40t-37.5 -62t-25 -90t-9.5 -121.5q0 -70 10.5 -126.5t26.5 -93t39.5 -63t44 -40t46.5 -21t41 -9t32 -1.5q26 0 52 6t60.5 28t60 57.5t43.5 102t18 154.5q0 87 -17.5 154t-42.5 103.5t-58.5 59.5t-60.5 30t-53 7z
M389 746q65 0 126.5 -26t111 -72.5t79.5 -118t30 -154.5q0 -175 -99.5 -281t-240.5 -106q-138 0 -242 106t-104 259q0 91 30.5 167.5t79.5 124.5t108.5 74.5t120.5 26.5zM337 907q13 0 26.5 -13.5t45 -55t58.5 -72.5l-10 -12l-51 34.5l-43 28.5l-30 20.5t-21 18.5t-6 16
q0 35 31 35z" />
    <glyph glyph-name="Oacute" unicode="&#xd3;" horiz-adv-x="786" 
d="M398 716q-20 0 -37.5 -2t-43 -10.5t-46.5 -22t-43 -40t-37.5 -62t-25 -90t-9.5 -121.5q0 -70 10.5 -126.5t26.5 -93t39.5 -63t44 -40t46.5 -21t41 -9t32 -1.5q26 0 52 6t60.5 28t60 57.5t43.5 102t18 154.5q0 87 -17.5 154t-42.5 103.5t-58.5 59.5t-60.5 30t-53 7z
M389 746q65 0 126.5 -26t111 -72.5t79.5 -118t30 -154.5q0 -175 -99.5 -281t-240.5 -106q-138 0 -242 106t-104 259q0 91 30.5 167.5t79.5 124.5t108.5 74.5t120.5 26.5zM469 907q31 0 31 -35q0 -8 -6 -16t-21 -18.5l-30 -20.5l-43 -28.5l-51 -34.5l-10 12q20 23 40 48.5
l31 40t22.5 28t20 19t16.5 5.5z" />
    <glyph glyph-name="Ocircumflex" unicode="&#xd4;" horiz-adv-x="786" 
d="M398 716q-20 0 -37.5 -2t-43 -10.5t-46.5 -22t-43 -40t-37.5 -62t-25 -90t-9.5 -121.5q0 -70 10.5 -126.5t26.5 -93t39.5 -63t44 -40t46.5 -21t41 -9t32 -1.5q26 0 52 6t60.5 28t60 57.5t43.5 102t18 154.5q0 87 -17.5 154t-42.5 103.5t-58.5 59.5t-60.5 30t-53 7z
M389 746q65 0 126.5 -26t111 -72.5t79.5 -118t30 -154.5q0 -175 -99.5 -281t-240.5 -106q-138 0 -242 106t-104 259q0 91 30.5 167.5t79.5 124.5t108.5 74.5t120.5 26.5zM382 930h18l123 -173l-16 -7l-116 101l-124 -100l-18 6z" />
    <glyph glyph-name="Otilde" unicode="&#xd5;" horiz-adv-x="786" 
d="M398 716q-20 0 -37.5 -2t-43 -10.5t-46.5 -22t-43 -40t-37.5 -62t-25 -90t-9.5 -121.5q0 -70 10.5 -126.5t26.5 -93t39.5 -63t44 -40t46.5 -21t41 -9t32 -1.5q26 0 52 6t60.5 28t60 57.5t43.5 102t18 154.5q0 87 -17.5 154t-42.5 103.5t-58.5 59.5t-60.5 30t-53 7z
M389 746q65 0 126.5 -26t111 -72.5t79.5 -118t30 -154.5q0 -175 -99.5 -281t-240.5 -106q-138 0 -242 106t-104 259q0 91 30.5 167.5t79.5 124.5t108.5 74.5t120.5 26.5zM492 820q22 0 35 8.5t27 35.5l10 -4q-35 -90 -96 -90q-36 0 -79.5 30t-62.5 30q-25 0 -41.5 -11
t-38.5 -45l-10 6q24 49 47.5 74t56.5 25q34 0 80 -29.5t72 -29.5z" />
    <glyph glyph-name="Odieresis" unicode="&#xd6;" horiz-adv-x="786" 
d="M398 716q-20 0 -37.5 -2t-43 -10.5t-46.5 -22t-43 -40t-37.5 -62t-25 -90t-9.5 -121.5q0 -70 10.5 -126.5t26.5 -93t39.5 -63t44 -40t46.5 -21t41 -9t32 -1.5q26 0 52 6t60.5 28t60 57.5t43.5 102t18 154.5q0 87 -17.5 154t-42.5 103.5t-58.5 59.5t-60.5 30t-53 7z
M389 746q65 0 126.5 -26t111 -72.5t79.5 -118t30 -154.5q0 -175 -99.5 -281t-240.5 -106q-138 0 -242 106t-104 259q0 91 30.5 167.5t79.5 124.5t108.5 74.5t120.5 26.5zM308 865q19 0 32 -13t13 -32q0 -21 -12.5 -33t-32.5 -12q-19 0 -32 13.5t-13 31.5q0 20 13 32.5
t32 12.5zM471 865q19 0 32 -13t13 -32q0 -21 -12.5 -33t-32.5 -12q-19 0 -32 13.5t-13 31.5q0 20 13 32.5t32 12.5z" />
    <glyph glyph-name="multiply" unicode="&#xd7;" horiz-adv-x="592" 
d="M118 501l37 37l147 -147l148 148l36 -36l-148 -148l146 -146l-37 -37l-146 146l-152 -152l-36 36l152 152z" />
    <glyph glyph-name="Oslash" unicode="&#xd8;" horiz-adv-x="786" 
d="M398 716q-20 0 -37.5 -2t-43 -10.5t-46.5 -22t-43 -40t-37.5 -62t-25 -90t-9.5 -121.5q0 -126 33 -208l386 451q-36 58 -84 81.5t-93 23.5zM723 783l31 -27l-110 -128q92 -104 92 -253q0 -175 -99.5 -281t-240.5 -106q-125 0 -224 89l-100 -117l-34 24l105 122
q-93 104 -93 247q0 91 30.5 167.5t79.5 124.5t108.5 74.5t120.5 26.5q128 0 226 -89zM595 571l-387 -452q62 -105 188 -105q26 0 52 6t60.5 28t60 57.5t43.5 102t18 154.5q0 128 -35 209z" />
    <glyph glyph-name="Ugrave" unicode="&#xd9;" horiz-adv-x="814" 
d="M134 729h88v-466q0 -122 52.5 -183.5t145.5 -61.5q120 0 172.5 64.5t52.5 167.5v479h37v-479q0 -121 -67 -193t-194 -72q-135 0 -211 62t-76 186v496zM377 897q13 0 26.5 -13.5t45 -55t58.5 -72.5l-10 -12l-51 34.5l-43 28.5l-30 20.5t-21 18.5t-6 16q0 35 31 35z" />
    <glyph glyph-name="Uacute" unicode="&#xda;" horiz-adv-x="814" 
d="M134 729h88v-466q0 -122 52.5 -183.5t145.5 -61.5q120 0 172.5 64.5t52.5 167.5v479h37v-479q0 -121 -67 -193t-194 -72q-135 0 -211 62t-76 186v496zM509 897q31 0 31 -35q0 -8 -6 -16t-21 -18.5l-30 -20.5l-43 -28.5l-51 -34.5l-10 12q20 23 40 48.5l31 40t22.5 28
t20 19t16.5 5.5z" />
    <glyph glyph-name="Ucircumflex" unicode="&#xdb;" horiz-adv-x="814" 
d="M134 729h88v-466q0 -122 52.5 -183.5t145.5 -61.5q120 0 172.5 64.5t52.5 167.5v479h37v-479q0 -121 -67 -193t-194 -72q-135 0 -211 62t-76 186v496zM423 930h18l123 -173l-16 -7l-116 101l-124 -100l-18 6z" />
    <glyph glyph-name="Udieresis" unicode="&#xdc;" horiz-adv-x="814" 
d="M134 729h88v-466q0 -122 52.5 -183.5t145.5 -61.5q120 0 172.5 64.5t52.5 167.5v479h37v-479q0 -121 -67 -193t-194 -72q-135 0 -211 62t-76 186v496zM345 865q19 0 32 -13t13 -32q0 -21 -12.5 -33t-32.5 -12q-19 0 -32 13.5t-13 31.5q0 20 13 32.5t32 12.5zM508 865
q19 0 32 -13t13 -32q0 -21 -12.5 -33t-32.5 -12q-19 0 -32 13.5t-13 31.5q0 20 13 32.5t32 12.5z" />
    <glyph glyph-name="Yacute" unicode="&#xdd;" horiz-adv-x="755" 
d="M405 345l86.5 140l104.5 168.5t47 76.5h41q-11 -14 -116 -181.5t-144 -237.5v-310h-86v294l-263 435h108q0 -10 222 -385zM469 897q31 0 31 -35q0 -8 -6 -16t-21 -18.5l-30 -20.5l-43 -28.5l-51 -34.5l-10 12q20 23 40 48.5l31 40t22.5 28t20 19t16.5 5.5z" />
    <glyph glyph-name="Thorn" unicode="&#xde;" horiz-adv-x="656" 
d="M504 377q0 37 -4 60.5t-16.5 48.5t-40.5 40.5t-72 23.5q-19 3 -124 3q-11 0 -15.5 -3t-4.5 -14q0 -20 -1 -164v-144q0 -10 10 -10q17 0 60 0.5t53 0.5q72 2 113.5 41.5t41.5 116.5zM224 577q35 1 148 1q36 0 75.5 -12.5t75.5 -35.5t59.5 -62t23.5 -85q0 -95 -80 -145
t-186 -50v0h-47t-39 0.5t-17 0.5q-10 0 -10 -9q0 -1 -0.5 -76.5t-0.5 -97.5l-84 -1v725h82v-153z" />
    <glyph glyph-name="germandbls" unicode="&#xdf;" horiz-adv-x="581" 
d="M179 -1l-72 3q0 27 -0.5 233t-0.5 291q0 31 8 74q19 89 72 128.5t118 39.5q89 0 139.5 -50t50.5 -134q0 -62 -51 -109.5t-125 -59.5q106 -6 167 -71.5t61 -151.5q0 -89 -54 -149.5t-126 -60.5q-65 0 -77 18q-8 12 14 19q36 12 86 -15q18 -9 36 9t30 59t12 92
q0 226 -207 240q-6 0 -6 10q0 9 6 9q79 5 117.5 50t38.5 117q0 152 -118 152q-53 0 -85 -37t-35 -81q-4 -32 -4 -66q0 -51 1.5 -185.5t3 -245t0.5 -128.5z" />
    <glyph glyph-name="agrave" unicode="&#xe0;" horiz-adv-x="456" 
d="M308 245q-31 -6 -48 -10t-46 -14.5t-44.5 -23t-28 -34.5t-12.5 -50q0 -37 21 -61.5t53 -18.5q62 12 105 28v184zM217 444q46 0 79 -16t48 -43.5t21.5 -53.5t6.5 -55v-276h-53l-12 32l-25 -10.5t-30 -12t-33.5 -8.5t-44.5 -4q-50 0 -85 31t-35 78q0 132 246 160q9 1 9 12
l1 38q-1 34 -23.5 64t-69.5 32q-35 0 -59 -10t-33.5 -22t-18 -21t-16.5 -7q-17 8 4 35q32 44 95 55q14 2 28 2zM197 637q13 0 26.5 -13.5t45 -55t58.5 -72.5l-10 -12l-51 34.5l-43 28.5l-30 20.5t-21 18.5t-6 16q0 35 31 35z" />
    <glyph glyph-name="aacute" unicode="&#xe1;" horiz-adv-x="456" 
d="M308 245q-31 -6 -48 -10t-46 -14.5t-44.5 -23t-28 -34.5t-12.5 -50q0 -37 21 -61.5t53 -18.5q62 12 105 28v184zM217 444q46 0 79 -16t48 -43.5t21.5 -53.5t6.5 -55v-276h-53l-12 32l-25 -10.5t-30 -12t-33.5 -8.5t-44.5 -4q-50 0 -85 31t-35 78q0 132 246 160q9 1 9 12
l1 38q-1 34 -23.5 64t-69.5 32q-35 0 -59 -10t-33.5 -22t-18 -21t-16.5 -7q-17 8 4 35q32 44 95 55q14 2 28 2zM289 637q31 0 31 -35q0 -8 -6 -16t-21 -18.5l-30 -20.5l-43 -28.5l-51 -34.5l-10 12q20 23 40 48.5l31 40t22.5 28t20 19t16.5 5.5z" />
    <glyph glyph-name="acircumflex" unicode="&#xe2;" horiz-adv-x="456" 
d="M308 245q-31 -6 -48 -10t-46 -14.5t-44.5 -23t-28 -34.5t-12.5 -50q0 -37 21 -61.5t53 -18.5q62 12 105 28v184zM217 444q46 0 79 -16t48 -43.5t21.5 -53.5t6.5 -55v-276h-53l-12 32l-25 -10.5t-30 -12t-33.5 -8.5t-44.5 -4q-50 0 -85 31t-35 78q0 132 246 160q9 1 9 12
l1 38q-1 34 -23.5 64t-69.5 32q-35 0 -59 -10t-33.5 -22t-18 -21t-16.5 -7q-17 8 4 35q32 44 95 55q14 2 28 2zM216 670h18l123 -173l-16 -7l-116 101l-124 -100l-18 6z" />
    <glyph glyph-name="atilde" unicode="&#xe3;" horiz-adv-x="456" 
d="M308 245q-31 -6 -48 -10t-46 -14.5t-44.5 -23t-28 -34.5t-12.5 -50q0 -37 21 -61.5t53 -18.5q62 12 105 28v184zM217 444q46 0 79 -16t48 -43.5t21.5 -53.5t6.5 -55v-276h-53l-12 32l-25 -10.5t-30 -12t-33.5 -8.5t-44.5 -4q-50 0 -85 31t-35 78q0 132 246 160q9 1 9 12
l1 38q-1 34 -23.5 64t-69.5 32q-35 0 -59 -10t-33.5 -22t-18 -21t-16.5 -7q-17 8 4 35q32 44 95 55q14 2 28 2zM329 550q22 0 35 8.5t27 35.5l10 -4q-35 -90 -96 -90q-36 0 -79.5 30t-62.5 30q-25 0 -41.5 -11t-38.5 -45l-10 6q24 49 47.5 74t56.5 25q35 0 81 -29.5
t71 -29.5z" />
    <glyph glyph-name="adieresis" unicode="&#xe4;" horiz-adv-x="456" 
d="M308 245q-31 -6 -48 -10t-46 -14.5t-44.5 -23t-28 -34.5t-12.5 -50q0 -37 21 -61.5t53 -18.5q62 12 105 28v184zM217 444q46 0 79 -16t48 -43.5t21.5 -53.5t6.5 -55v-276h-53l-12 32l-25 -10.5t-30 -12t-33.5 -8.5t-44.5 -4q-50 0 -85 31t-35 78q0 132 246 160q9 1 9 12
l1 38q-1 34 -23.5 64t-69.5 32q-35 0 -59 -10t-33.5 -22t-18 -21t-16.5 -7q-17 8 4 35q32 44 95 55q14 2 28 2zM150 625q19 0 32 -13t13 -32q0 -21 -12.5 -33t-32.5 -12q-19 0 -32 13.5t-13 31.5q0 20 13 32.5t32 12.5zM313 625q19 0 32 -13t13 -32q0 -21 -12.5 -33
t-32.5 -12q-19 0 -32 13.5t-13 31.5q0 20 13 32.5t32 12.5z" />
    <glyph glyph-name="aring" unicode="&#xe5;" horiz-adv-x="456" 
d="M308 245q-31 -6 -48 -10t-46 -14.5t-44.5 -23t-28 -34.5t-12.5 -50q0 -37 21 -61.5t53 -18.5q62 12 105 28v184zM217 444q46 0 79 -16t48 -43.5t21.5 -53.5t6.5 -55v-276h-53l-12 32l-25 -10.5t-30 -12t-33.5 -8.5t-44.5 -4q-50 0 -85 31t-35 78q0 132 246 160q9 1 9 12
l1 38q-1 34 -23.5 64t-69.5 32q-35 0 -59 -10t-33.5 -22t-18 -21t-16.5 -7q-17 8 4 35q32 44 95 55q14 2 28 2zM237 626q-25 0 -43 -18t-18 -43t18 -43t43 -18t43 18t18 43t-18 43t-43 18zM237 655q37 0 63.5 -26.5t26.5 -63.5t-26.5 -63.5t-63.5 -26.5t-63.5 26.5
t-26.5 63.5t26.5 63.5t63.5 26.5z" />
    <glyph glyph-name="ae" unicode="&#xe6;" horiz-adv-x="717" 
d="M502 426q-41 0 -77 -38t-41 -111h207q2 75 -19 112t-70 37zM374 387q31 34 59.5 50.5t68.5 16.5q56 0 96.5 -32.5t58 -76.5t17.5 -90q0 -8 -1.5 -10t-8.5 -2h-281q0 -63 13 -108t35 -67.5t44.5 -32t48.5 -9.5q83 0 132 72q8 11 16 5q12 -8 5 -17q-66 -102 -185 -102
q-97 0 -153 100q-25 -35 -71.5 -61t-93.5 -26q-51 0 -86 26.5t-35 72.5q0 40 24 72t63.5 51t80.5 30.5t86 16.5q8 1 8 12l-1 63q-1 30 -17.5 51.5t-44.5 21.5q-61 0 -79 -31q-10 -18 -13 -43q-1 -15 -13.5 -29t-33.5 -14q-19 0 -30 10.5t-11 28.5q0 41 55 73t135 32
q45 0 74.5 -15t37.5 -39zM314 244q-30 -5 -48.5 -9t-47.5 -14.5t-45.5 -23t-29.5 -34.5t-13 -50q0 -36 20 -58t54 -22q33 0 63 16.5t47 43.5v151z" />
    <glyph glyph-name="ccedilla" unicode="&#xe7;" horiz-adv-x="455" 
d="M257 450q72 -2 116 -51q23 -26 13 -34q-8 -3 -46 29q-39 32 -86 31q-57 -1 -93 -49.5t-40 -140.5q-5 -107 34 -158t105 -53q82 -2 130 77q6 11 17 6q9 -6 6 -15q-19 -41 -63.5 -75.5t-107.5 -32.5q-89 2 -148 69t-55 185q4 97 70.5 155.5t147.5 56.5zM147 -158l17 17
q29 -19 71 -19q14 0 27.5 10t13.5 23q0 39 -60 39l26 88h33l-22 -63q34 -1 55 -17.5t21 -38.5q0 -26 -30.5 -45.5t-65.5 -19.5q-46 0 -86 26z" />
    <glyph glyph-name="egrave" unicode="&#xe8;" horiz-adv-x="472" 
d="M251 426q-46 2 -85.5 -40.5t-44.5 -117.5h231q1 69 -29.5 112.5t-71.5 45.5zM251 454q82 0 130 -62.5t48 -136.5q0 -8 -1.5 -10t-8.5 -2h-297q0 -62 15.5 -107.5t40.5 -67.5t50 -32t51 -10q83 0 132 72q8 11 16 5q12 -8 5 -17q-66 -102 -185 -102q-86 0 -145.5 62.5
t-59.5 153.5q0 104 59.5 179t149.5 75zM177 637q13 0 26.5 -13.5t45 -55t58.5 -72.5l-10 -12l-51 34.5l-43 28.5l-30 20.5t-21 18.5t-6 16q0 35 31 35z" />
    <glyph glyph-name="eacute" unicode="&#xe9;" horiz-adv-x="472" 
d="M251 426q-46 2 -85.5 -40.5t-44.5 -117.5h231q1 69 -29.5 112.5t-71.5 45.5zM251 454q82 0 130 -62.5t48 -136.5q0 -8 -1.5 -10t-8.5 -2h-297q0 -62 15.5 -107.5t40.5 -67.5t50 -32t51 -10q83 0 132 72q8 11 16 5q12 -8 5 -17q-66 -102 -185 -102q-86 0 -145.5 62.5
t-59.5 153.5q0 104 59.5 179t149.5 75zM289 637q31 0 31 -35q0 -8 -6 -16t-21 -18.5l-30 -20.5l-43 -28.5l-51 -34.5l-10 12q20 23 40 48.5l31 40t22.5 28t20 19t16.5 5.5z" />
    <glyph glyph-name="ecircumflex" unicode="&#xea;" horiz-adv-x="472" 
d="M251 426q-46 2 -85.5 -40.5t-44.5 -117.5h231q1 69 -29.5 112.5t-71.5 45.5zM251 454q82 0 130 -62.5t48 -136.5q0 -8 -1.5 -10t-8.5 -2h-297q0 -62 15.5 -107.5t40.5 -67.5t50 -32t51 -10q83 0 132 72q8 11 16 5q12 -8 5 -17q-66 -102 -185 -102q-86 0 -145.5 62.5
t-59.5 153.5q0 104 59.5 179t149.5 75zM241 670h18l123 -173l-16 -7l-116 101l-124 -100l-18 6z" />
    <glyph glyph-name="edieresis" unicode="&#xeb;" horiz-adv-x="472" 
d="M251 426q-46 2 -85.5 -40.5t-44.5 -117.5h231q1 69 -29.5 112.5t-71.5 45.5zM251 454q82 0 130 -62.5t48 -136.5q0 -8 -1.5 -10t-8.5 -2h-297q0 -62 15.5 -107.5t40.5 -67.5t50 -32t51 -10q83 0 132 72q8 11 16 5q12 -8 5 -17q-66 -102 -185 -102q-86 0 -145.5 62.5
t-59.5 153.5q0 104 59.5 179t149.5 75zM165 625q19 0 32 -13t13 -32q0 -21 -12.5 -33t-32.5 -12q-19 0 -32 13.5t-13 31.5q0 20 13 32.5t32 12.5zM328 625q19 0 32 -13t13 -32q0 -21 -12.5 -33t-32.5 -12q-19 0 -32 13.5t-13 31.5q0 20 13 32.5t32 12.5z" />
    <glyph glyph-name="igrave" unicode="&#xec;" horiz-adv-x="278" 
d="M111 426l53 24q14 7 14 -9v-440h-67v425zM67 637q13 0 26.5 -13.5t45 -55t58.5 -72.5l-10 -12l-51 34.5l-43 28.5l-30 20.5t-21 18.5t-6 16q0 35 31 35z" />
    <glyph glyph-name="iacute" unicode="&#xed;" horiz-adv-x="278" 
d="M111 426l53 24q14 7 14 -9v-440h-67v425zM189 637q31 0 31 -35q0 -8 -6 -16t-21 -18.5l-30 -20.5l-43 -28.5l-51 -34.5l-10 12q20 23 40 48.5l31 40t22.5 28t20 19t16.5 5.5z" />
    <glyph glyph-name="icircumflex" unicode="&#xee;" horiz-adv-x="278" 
d="M111 426l53 24q14 7 14 -9v-440h-67v425zM128 670h18l123 -173l-16 -7l-116 101l-124 -100l-18 6z" />
    <glyph glyph-name="idieresis" unicode="&#xef;" horiz-adv-x="278" 
d="M111 426l53 24q14 7 14 -9v-440h-67v425zM50 625q19 0 32 -13t13 -32q0 -21 -12.5 -33t-32.5 -12q-19 0 -32 13.5t-13 31.5q0 20 13 32.5t32 12.5zM213 625q19 0 32 -13t13 -32q0 -21 -12.5 -33t-32.5 -12q-19 0 -32 13.5t-13 31.5q0 20 13 32.5t32 12.5z" />
    <glyph glyph-name="ntilde" unicode="&#xf1;" horiz-adv-x="559" 
d="M172 363q25 34 64.5 59t81.5 25q56 0 97.5 -29.5t41.5 -99.5v-317h-69v298q0 52 -28.5 78t-60.5 26q-71 0 -126 -70q1 -103 1 -333h-67v426l51 24q14 3 14 -9v-78zM370 550q22 0 35 8.5t27 35.5l10 -4q-35 -90 -96 -90q-36 0 -79.5 30t-62.5 30q-25 0 -41.5 -11
t-38.5 -45l-10 6q24 49 47.5 74t56.5 25q34 0 80 -29.5t72 -29.5z" />
    <glyph glyph-name="ograve" unicode="&#xf2;" horiz-adv-x="520" 
d="M261 428q-24 0 -45 -8.5t-43 -29.5t-34.5 -65.5t-12.5 -108.5q0 -62 14 -106t36 -64.5t41.5 -29t38.5 -8.5q18 0 34.5 4t36.5 17.5t34 35t23.5 61t9.5 92.5q0 63 -13 107.5t-35 65t-42.5 29t-42.5 8.5zM258 454q88 0 154 -63t66 -169q0 -112 -65 -175t-155 -63
q-89 0 -152.5 70.5t-63.5 159.5q0 109 69 174.5t147 65.5zM187 637q13 0 26.5 -13.5t45 -55t58.5 -72.5l-10 -12l-51 34.5l-43 28.5l-30 20.5t-21 18.5t-6 16q0 35 31 35z" />
    <glyph glyph-name="oacute" unicode="&#xf3;" horiz-adv-x="520" 
d="M261 428q-24 0 -45 -8.5t-43 -29.5t-34.5 -65.5t-12.5 -108.5q0 -62 14 -106t36 -64.5t41.5 -29t38.5 -8.5q18 0 34.5 4t36.5 17.5t34 35t23.5 61t9.5 92.5q0 63 -13 107.5t-35 65t-42.5 29t-42.5 8.5zM258 454q88 0 154 -63t66 -169q0 -112 -65 -175t-155 -63
q-89 0 -152.5 70.5t-63.5 159.5q0 109 69 174.5t147 65.5zM307 637q31 0 31 -35q0 -8 -6 -16t-21 -18.5l-30 -20.5l-43 -28.5l-51 -34.5l-10 12q20 23 40 48.5l31 40t22.5 28t20 19t16.5 5.5z" />
    <glyph glyph-name="ocircumflex" unicode="&#xf4;" horiz-adv-x="520" 
d="M261 428q-24 0 -45 -8.5t-43 -29.5t-34.5 -65.5t-12.5 -108.5q0 -62 14 -106t36 -64.5t41.5 -29t38.5 -8.5q18 0 34.5 4t36.5 17.5t34 35t23.5 61t9.5 92.5q0 63 -13 107.5t-35 65t-42.5 29t-42.5 8.5zM258 454q88 0 154 -63t66 -169q0 -112 -65 -175t-155 -63
q-89 0 -152.5 70.5t-63.5 159.5q0 109 69 174.5t147 65.5zM245 670h18l123 -173l-16 -7l-116 101l-124 -100l-18 6z" />
    <glyph glyph-name="otilde" unicode="&#xf5;" horiz-adv-x="520" 
d="M261 428q-24 0 -45 -8.5t-43 -29.5t-34.5 -65.5t-12.5 -108.5q0 -62 14 -106t36 -64.5t41.5 -29t38.5 -8.5q18 0 34.5 4t36.5 17.5t34 35t23.5 61t9.5 92.5q0 63 -13 107.5t-35 65t-42.5 29t-42.5 8.5zM258 454q88 0 154 -63t66 -169q0 -112 -65 -175t-155 -63
q-89 0 -152.5 70.5t-63.5 159.5q0 109 69 174.5t147 65.5zM359 550q22 0 35 8.5t27 35.5l10 -4q-35 -90 -96 -90q-36 0 -79.5 30t-62.5 30q-25 0 -41.5 -11t-38.5 -45l-10 6q24 49 47.5 74t56.5 25q34 0 80.5 -29.5t71.5 -29.5z" />
    <glyph glyph-name="odieresis" unicode="&#xf6;" horiz-adv-x="520" 
d="M261 428q-24 0 -45 -8.5t-43 -29.5t-34.5 -65.5t-12.5 -108.5q0 -62 14 -106t36 -64.5t41.5 -29t38.5 -8.5q18 0 34.5 4t36.5 17.5t34 35t23.5 61t9.5 92.5q0 63 -13 107.5t-35 65t-42.5 29t-42.5 8.5zM258 454q88 0 154 -63t66 -169q0 -112 -65 -175t-155 -63
q-89 0 -152.5 70.5t-63.5 159.5q0 109 69 174.5t147 65.5zM175 625q19 0 32 -13t13 -32q0 -21 -12.5 -33t-32.5 -12q-19 0 -32 13.5t-13 31.5q0 20 13 32.5t32 12.5zM338 625q19 0 32 -13t13 -32q0 -21 -12.5 -33t-32.5 -12q-19 0 -32 13.5t-13 31.5q0 20 13 32.5t32 12.5z
" />
    <glyph glyph-name="divide" unicode="&#xf7;" horiz-adv-x="592" 
d="M296 219q19 0 32 -13t13 -32q0 -21 -12.5 -33t-32.5 -12q-19 0 -32 13.5t-13 31.5q0 20 13 32.5t32 12.5zM296 573q19 0 32 -13t13 -32q0 -21 -12.5 -33t-32.5 -12q-19 0 -32 13.5t-13 31.5q0 20 13 32.5t32 12.5zM61 378h476v-51h-476v51z" />
    <glyph glyph-name="oslash" unicode="&#xf8;" horiz-adv-x="520" 
d="M261 428q-24 0 -45 -8.5t-43 -29.5t-34.5 -65.5t-12.5 -108.5q0 -60 15 -107l219 262q-35 57 -99 57zM451 480l31 -27l-60 -72q56 -64 56 -159q0 -112 -65 -175t-155 -63q-71 0 -128 47l-62 -74l-34 24l66 79q-58 69 -58 154q0 109 69 174.5t147 65.5q73 0 134 -45z
M379 330l-219 -263q36 -59 96 -59q18 0 34.5 4t36.5 17.5t34 35t23.5 61t9.5 92.5q0 64 -15 112z" />
    <glyph glyph-name="ugrave" unicode="&#xf9;" horiz-adv-x="528" 
d="M86 415l65 34q5 3 8.5 0.5t3.5 -7.5q0 -1 -3 -138.5t-3 -154.5q0 -49 24 -81.5t69 -32.5q15 0 26 1t24.5 4.5t19.5 5.5t24 9t25 10l-1 382h68v-453l-47 1q-20 -1 -20 11q0 1 1.5 12t0.5 26q-79 -56 -146 -56q-52 0 -95.5 30.5t-43.5 95.5v301zM167 637q13 0 26.5 -13.5
t45 -55t58.5 -72.5l-10 -12l-51 34.5l-43 28.5l-30 20.5t-21 18.5t-6 16q0 35 31 35z" />
    <glyph glyph-name="uacute" unicode="&#xfa;" horiz-adv-x="528" 
d="M86 415l65 34q5 3 8.5 0.5t3.5 -7.5q0 -1 -3 -138.5t-3 -154.5q0 -49 24 -81.5t69 -32.5q15 0 26 1t24.5 4.5t19.5 5.5t24 9t25 10l-1 382h68v-453l-47 1q-20 -1 -20 11q0 1 1.5 12t0.5 26q-79 -56 -146 -56q-52 0 -95.5 30.5t-43.5 95.5v301zM329 637q31 0 31 -35
q0 -8 -6 -16t-21 -18.5l-30 -20.5l-43 -28.5l-51 -34.5l-10 12q20 23 40 48.5l31 40t22.5 28t20 19t16.5 5.5z" />
    <glyph glyph-name="ucircumflex" unicode="&#xfb;" horiz-adv-x="528" 
d="M86 415l65 34q5 3 8.5 0.5t3.5 -7.5q0 -1 -3 -138.5t-3 -154.5q0 -49 24 -81.5t69 -32.5q15 0 26 1t24.5 4.5t19.5 5.5t24 9t25 10l-1 382h68v-453l-47 1q-20 -1 -20 11q0 1 1.5 12t0.5 26q-79 -56 -146 -56q-52 0 -95.5 30.5t-43.5 95.5v301zM233 670h18l123 -173
l-16 -7l-116 101l-124 -100l-18 6z" />
    <glyph glyph-name="udieresis" unicode="&#xfc;" horiz-adv-x="528" 
d="M86 415l65 34q5 3 8.5 0.5t3.5 -7.5q0 -1 -3 -138.5t-3 -154.5q0 -49 24 -81.5t69 -32.5q15 0 26 1t24.5 4.5t19.5 5.5t24 9t25 10l-1 382h68v-453l-47 1q-20 -1 -20 11q0 1 1.5 12t0.5 26q-79 -56 -146 -56q-52 0 -95.5 30.5t-43.5 95.5v301zM180 625q19 0 32 -13
t13 -32q0 -21 -12.5 -33t-32.5 -12q-19 0 -32 13.5t-13 31.5q0 20 13 32.5t32 12.5zM343 625q19 0 32 -13t13 -32q0 -21 -12.5 -33t-32.5 -12q-19 0 -32 13.5t-13 31.5q0 20 13 32.5t32 12.5z" />
    <glyph glyph-name="yacute" unicode="&#xfd;" horiz-adv-x="497" 
d="M403 431h33q-151 -403 -163 -431q-27 -65 -49 -98q-20 -29 -43 -49t-43.5 -29t-38.5 -12t-29.5 0t-15.5 9q-6 16 -3 19t20.5 6.5t36 5.5t43.5 16t43 38q4 6 11.5 20.5l18.5 37.5t18 36l-190 431h75q138 -330 141 -338q2 -6 6.5 -6t5.5 5zM349 637q31 0 31 -35
q0 -8 -6 -16t-21 -18.5l-30 -20.5l-43 -28.5l-51 -34.5l-10 12q20 23 40 48.5l31 40t22.5 28t20 19t16.5 5.5z" />
    <glyph glyph-name="thorn" unicode="&#xfe;" horiz-adv-x="540" 
d="M172 373q68 74 132 74q78 0 136 -53t58 -156q0 -119 -57 -185t-127 -66q-94 0 -142 66v-183l-65 7v870l51 17q14 3 14 -9v-382zM172 337v-257q50 -62 120 -62q22 0 41.5 8t40 27.5t33 61.5t12.5 101q0 197 -125 197q-73 0 -122 -76z" />
    <glyph glyph-name="ydieresis" unicode="&#xff;" horiz-adv-x="497" 
d="M403 431h33q-151 -403 -163 -431q-27 -65 -49 -98q-20 -29 -43 -49t-43.5 -29t-38.5 -12t-29.5 0t-15.5 9q-6 16 -3 19t20.5 6.5t36 5.5t43.5 16t43 38q4 6 11.5 20.5l18.5 37.5t18 36l-190 431h75q138 -330 141 -338q2 -6 6.5 -6t5.5 5zM176 625q19 0 32 -13t13 -32
q0 -21 -12.5 -33t-32.5 -12q-19 0 -32 13.5t-13 31.5q0 20 13 32.5t32 12.5zM339 625q19 0 32 -13t13 -32q0 -21 -12.5 -33t-32.5 -12q-19 0 -32 13.5t-13 31.5q0 20 13 32.5t32 12.5z" />
    <glyph glyph-name="Amacron" unicode="&#x100;" horiz-adv-x="766" 
d="M284 757v16h202v-16h-202zM355 659q-124 -348 -126 -351q-3 -8 -1 -12t7 -4h249zM337 708l68 31q13 0 16 -11l256 -728h-92l-87 262h-110.5t-110.5 -0.5t-48 -0.5q-18 0 -21 -10q-32 -72 -87 -253l-44 1h2l-1 1z" />
    <glyph glyph-name="amacron" unicode="&#x101;" horiz-adv-x="456" 
d="M134 516v16h202v-16h-202zM308 245q-31 -6 -48 -10t-46 -14.5t-44.5 -23t-28 -34.5t-12.5 -50q0 -37 21 -61.5t53 -18.5q62 12 105 28v184zM217 444q46 0 79 -16t48 -43.5t21.5 -53.5t6.5 -55v-276h-53l-12 32l-25 -10.5t-30 -12t-33.5 -8.5t-44.5 -4q-50 0 -85 31
t-35 78q0 132 246 160q9 1 9 12l1 38q-1 34 -23.5 64t-69.5 32q-35 0 -59 -10t-33.5 -22t-18 -21t-16.5 -7q-17 8 4 35q32 44 95 55q14 2 28 2z" />
    <glyph glyph-name="Abreve" unicode="&#x102;" horiz-adv-x="766" 
d="M355 659q-124 -348 -126 -351q-3 -8 -1 -12t7 -4h249zM337 708l68 31q13 0 16 -11l256 -728h-92l-87 262h-110.5t-110.5 -0.5t-48 -0.5q-18 0 -21 -10q-32 -72 -87 -253l-44 1h2l-1 1zM289 953h32q4 -17 23.5 -36t38.5 -19t39.5 19.5t23.5 35.5h34q-5 -41 -33 -72
t-64 -31q-72 0 -94 103z" />
    <glyph glyph-name="abreve" unicode="&#x103;" horiz-adv-x="456" 
d="M308 245q-31 -6 -48 -10t-46 -14.5t-44.5 -23t-28 -34.5t-12.5 -50q0 -37 21 -61.5t53 -18.5q62 12 105 28v184zM217 444q46 0 79 -16t48 -43.5t21.5 -53.5t6.5 -55v-276h-53l-12 32l-25 -10.5t-30 -12t-33.5 -8.5t-44.5 -4q-50 0 -85 31t-35 78q0 132 246 160q9 1 9 12
l1 38q-1 34 -23.5 64t-69.5 32q-35 0 -59 -10t-33.5 -22t-18 -21t-16.5 -7q-17 8 4 35q32 44 95 55q14 2 28 2zM134 659h32q4 -17 23.5 -36t38.5 -19t39.5 19.5t23.5 35.5h34q-5 -41 -33 -72t-64 -31q-72 0 -94 103z" />
    <glyph glyph-name="Aogonek" unicode="&#x104;" horiz-adv-x="766" 
d="M506 -159l17 17q29 -19 71 -19q14 0 27.5 10t13.5 23q0 39 -60 39l26 88h33l-22 -63q34 -1 55 -17.5t21 -38.5q0 -26 -30.5 -45.5t-65.5 -19.5q-46 0 -86 26zM355 659q-124 -348 -126 -351q-3 -8 -1 -12t7 -4h249zM337 708l68 31q13 0 16 -11l256 -728h-92l-87 262
h-110.5t-110.5 -0.5t-48 -0.5q-18 0 -21 -10q-32 -72 -87 -253l-44 1h2l-1 1z" />
    <glyph glyph-name="aogonek" unicode="&#x105;" horiz-adv-x="456" 
d="M226 -158l17 17q29 -19 71 -19q14 0 27.5 10t13.5 23q0 39 -60 39l26 88h33l-22 -63q34 -1 55 -17.5t21 -38.5q0 -26 -30.5 -45.5t-65.5 -19.5q-46 0 -86 26zM308 245q-31 -6 -48 -10t-46 -14.5t-44.5 -23t-28 -34.5t-12.5 -50q0 -37 21 -61.5t53 -18.5q62 12 105 28v184
zM217 444q46 0 79 -16t48 -43.5t21.5 -53.5t6.5 -55v-276h-53l-12 32l-25 -10.5t-30 -12t-33.5 -8.5t-44.5 -4q-50 0 -85 31t-35 78q0 132 246 160q9 1 9 12l1 38q-1 34 -23.5 64t-69.5 32q-35 0 -59 -10t-33.5 -22t-18 -21t-16.5 -7q-17 8 4 35q32 44 95 55q14 2 28 2z" />
    <glyph glyph-name="Cacute" unicode="&#x106;" horiz-adv-x="695" 
d="M378 742q83 -2 137 -30t118 -107q6 -8 -4 -12q-4 -2 -6 -4q-1 -2 -7 -0.5t-8 4.5q-74 125 -223 119q-34 -1 -64 -11t-62 -35.5t-55 -64t-37.5 -103t-14.5 -146.5q0 -78 17 -138t42.5 -95t60.5 -57.5t66 -30t63 -7.5q92 0 147.5 45t102.5 143q1 3 5 5.5t6 1.5q1 0 4 -2
t5.5 -3.5t3.5 -1.5t2 -2t1 -5t-1 -6q-34 -98 -109 -157.5t-171 -59.5q-67 0 -129 23t-113 66.5t-81.5 116t-30.5 162.5q0 89 31 165.5t80 125t108 75.5t116 26zM397 931q31 0 31 -35q0 -8 -6 -16t-21 -18.5l-30 -20.5l-43 -28.5l-51 -34.5l-10 12q20 23 40 48.5l31 40
t22.5 28t20 19t16.5 5.5z" />
    <glyph glyph-name="cacute" unicode="&#x107;" horiz-adv-x="455" 
d="M257 450q72 -2 116 -51q23 -26 13 -34q-8 -3 -46 29q-39 32 -86 31q-57 -1 -93 -49.5t-40 -140.5q-5 -107 34 -158t105 -53q82 -2 130 77q6 11 17 6q9 -6 6 -15q-19 -41 -63.5 -75.5t-107.5 -32.5q-89 2 -148 69t-55 185q4 97 70.5 155.5t147.5 56.5zM277 637
q31 0 31 -35q0 -8 -6 -16t-21 -18.5l-30 -20.5l-43 -28.5l-51 -34.5l-10 12q20 23 40 48.5l31 40t22.5 28t20 19t16.5 5.5z" />
    <glyph glyph-name="ccircumflex" unicode="&#x109;" horiz-adv-x="455" 
d="M257 450q72 -2 116 -51q23 -26 13 -34q-8 -3 -46 29q-39 32 -86 31q-57 -1 -93 -49.5t-40 -140.5q-5 -107 34 -158t105 -53q82 -2 130 77q6 11 17 6q9 -6 6 -15q-19 -41 -63.5 -75.5t-107.5 -32.5q-89 2 -148 69t-55 185q4 97 70.5 155.5t147.5 56.5zM223 670h18
l123 -173l-16 -7l-116 101l-124 -100l-18 6z" />
    <glyph glyph-name="Cdotaccent" unicode="&#x10a;" horiz-adv-x="695" 
d="M378 742q83 -2 137 -30t118 -107q6 -8 -4 -12q-4 -2 -6 -4q-1 -2 -7 -0.5t-8 4.5q-74 125 -223 119q-34 -1 -64 -11t-62 -35.5t-55 -64t-37.5 -103t-14.5 -146.5q0 -78 17 -138t42.5 -95t60.5 -57.5t66 -30t63 -7.5q92 0 147.5 45t102.5 143q1 3 5 5.5t6 1.5q1 0 4 -2
t5.5 -3.5t3.5 -1.5t2 -2t1 -5t-1 -6q-34 -98 -109 -157.5t-171 -59.5q-67 0 -129 23t-113 66.5t-81.5 116t-30.5 162.5q0 89 31 165.5t80 125t108 75.5t116 26zM346 1010q23 0 38.5 -16t15.5 -38q0 -19 -14 -33.5t-36 -14.5q-26 0 -41 13t-15 37q0 20 15.5 36t36.5 16z" />
    <glyph glyph-name="cdotaccent" unicode="&#x10b;" horiz-adv-x="455" 
d="M257 450q72 -2 116 -51q23 -26 13 -34q-8 -3 -46 29q-39 32 -86 31q-57 -1 -93 -49.5t-40 -140.5q-5 -107 34 -158t105 -53q82 -2 130 77q6 11 17 6q9 -6 6 -15q-19 -41 -63.5 -75.5t-107.5 -32.5q-89 2 -148 69t-55 185q4 97 70.5 155.5t147.5 56.5zM226 716
q23 0 38.5 -16t15.5 -38q0 -19 -14 -33.5t-36 -14.5q-26 0 -41 13t-15 37q0 20 15.5 36t36.5 16z" />
    <glyph glyph-name="Ccaron" unicode="&#x10c;" horiz-adv-x="695" 
d="M378 742q83 -2 137 -30t118 -107q6 -8 -4 -12q-4 -2 -6 -4q-1 -2 -7 -0.5t-8 4.5q-74 125 -223 119q-34 -1 -64 -11t-62 -35.5t-55 -64t-37.5 -103t-14.5 -146.5q0 -78 17 -138t42.5 -95t60.5 -57.5t66 -30t63 -7.5q92 0 147.5 45t102.5 143q1 3 5 5.5t6 1.5q1 0 4 -2
t5.5 -3.5t3.5 -1.5t2 -2t1 -5t-1 -6q-34 -98 -109 -157.5t-171 -59.5q-67 0 -129 23t-113 66.5t-81.5 116t-30.5 162.5q0 89 31 165.5t80 125t108 75.5t116 26zM351 787h-18l-123 173l16 7l116 -101l124 100l18 -6z" />
    <glyph glyph-name="ccaron" unicode="&#x10d;" horiz-adv-x="455" 
d="M257 450q72 -2 116 -51q23 -26 13 -34q-8 -3 -46 29q-39 32 -86 31q-57 -1 -93 -49.5t-40 -140.5q-5 -107 34 -158t105 -53q82 -2 130 77q6 11 17 6q9 -6 6 -15q-19 -41 -63.5 -75.5t-107.5 -32.5q-89 2 -148 69t-55 185q4 97 70.5 155.5t147.5 56.5zM231 493h-18
l-123 173l16 7l116 -101l124 100l18 -6z" />
    <glyph glyph-name="Dcaron" unicode="&#x10e;" horiz-adv-x="773" 
d="M357 0h-221l1 726q9 0 102 1t149 1q37 0 79.5 -12t88 -40t82.5 -68t61 -102t24 -136q0 -89 -29.5 -161t-80.5 -117t-116.5 -68.5t-139.5 -23.5zM254 24q10 -2 62 -1t92 5q30 3 57 13t56.5 33.5t50.5 58.5t35 94.5t14 135.5q0 316 -227 336q-37 3 -129 3q-27 0 -33 -4.5
t-6 -29.5v-599q0 -35 3 -40t25 -5zM390 787h-18l-123 173l16 7l116 -101l124 100l18 -6z" />
    <glyph glyph-name="dcaron" unicode="&#x10f;" horiz-adv-x="738" 
d="M381 58q0 3 -1 115.5t-1 186.5q-27 32 -50.5 46.5t-64.5 14.5q-54 0 -97.5 -53t-43.5 -148q0 -105 41 -153t95 -48q74 0 122 39zM381 35q-30 -30 -59.5 -39t-84.5 -9q-75 0 -135 55t-60 166q0 107 61.5 176.5t138.5 69.5q47 0 76 -16.5t61 -55.5v377l65 -1v-758l-64 -1
q-1 4 0 15t1 21zM630 738q22 0 42 -13.5t30 -40.5q6 -16 6 -48q0 -27 -8 -46q-22 -59 -110 -122q-9 -7 -16 1q-10 11 -5 15q51 35 79 74q18 24 18 46q0 20 -21 24q-31 3 -51 17t-20 38q0 23 14.5 39t41.5 16z" />
    <glyph glyph-name="Dcroat" unicode="&#x110;" horiz-adv-x="773" 
d="M179 321v71h255v-71h-255zM357 0h-221l1 726q9 0 102 1t149 1q37 0 79.5 -12t88 -40t82.5 -68t61 -102t24 -136q0 -89 -29.5 -161t-80.5 -117t-116.5 -68.5t-139.5 -23.5zM254 24q10 -2 62 -1t92 5q30 3 57 13t56.5 33.5t50.5 58.5t35 94.5t14 135.5q0 316 -227 336
q-37 3 -129 3q-27 0 -33 -4.5t-6 -29.5v-599q0 -35 3 -40t25 -5z" />
    <glyph glyph-name="dcroat" unicode="&#x111;" horiz-adv-x="542" 
d="M381 58q0 3 -1 115.5t-1 186.5q-27 32 -50.5 46.5t-64.5 14.5q-54 0 -97.5 -53t-43.5 -148q0 -105 41 -153t95 -48q74 0 122 39zM381 35q-30 -30 -59.5 -39t-84.5 -9q-75 0 -135 55t-60 166q0 107 61.5 176.5t138.5 69.5q47 0 76 -16.5t61 -55.5v377l65 -1v-758l-64 -1
q-1 4 0 15t1 21zM329 608h82h34.5t30.5 0.5t13 0.5q14 -1 14 -11v-38q0 -6 -4.5 -10.5t-9.5 -4.5q-2 0 -11.5 0.5t-27 1.5t-39.5 1h-80q-14 0 -14 8v40q0 12 12 12z" />
    <glyph glyph-name="Emacron" unicode="&#x112;" horiz-adv-x="693" 
d="M274 785v16h202v-16h-202zM133 2v729l513 -1v-26h-372q-24 0 -34 -8.5t-10 -31.5q0 -12 -1.5 -134.5t-1.5 -124.5q0 -13 8 -13h91v-24h-87q-11 0 -11 -8l1 -267q0 -32 9.5 -46.5t36.5 -14.5h371v-30h-513z" />
    <glyph glyph-name="emacron" unicode="&#x113;" horiz-adv-x="472" 
d="M134 503v16h202v-16h-202zM251 426q-46 2 -85.5 -40.5t-44.5 -117.5h231q1 69 -29.5 112.5t-71.5 45.5zM251 454q82 0 130 -62.5t48 -136.5q0 -8 -1.5 -10t-8.5 -2h-297q0 -62 15.5 -107.5t40.5 -67.5t50 -32t51 -10q83 0 132 72q8 11 16 5q12 -8 5 -17
q-66 -102 -185 -102q-86 0 -145.5 62.5t-59.5 153.5q0 104 59.5 179t149.5 75z" />
    <glyph glyph-name="Ebreve" unicode="&#x114;" horiz-adv-x="693" 
d="M133 2v729l513 -1v-26h-372q-24 0 -34 -8.5t-10 -31.5q0 -12 -1.5 -134.5t-1.5 -124.5q0 -13 8 -13h91v-24h-87q-11 0 -11 -8l1 -267q0 -32 9.5 -46.5t36.5 -14.5h371v-30h-513zM251 953h32q4 -17 23.5 -36t38.5 -19t39.5 19.5t23.5 35.5h34q-5 -41 -33 -72t-64 -31
q-72 0 -94 103z" />
    <glyph glyph-name="ebreve" unicode="&#x115;" horiz-adv-x="472" 
d="M251 426q-46 2 -85.5 -40.5t-44.5 -117.5h231q1 69 -29.5 112.5t-71.5 45.5zM251 454q82 0 130 -62.5t48 -136.5q0 -8 -1.5 -10t-8.5 -2h-297q0 -62 15.5 -107.5t40.5 -67.5t50 -32t51 -10q83 0 132 72q8 11 16 5q12 -8 5 -17q-66 -102 -185 -102q-86 0 -145.5 62.5
t-59.5 153.5q0 104 59.5 179t149.5 75zM141 659h32q4 -17 23.5 -36t38.5 -19t39.5 19.5t23.5 35.5h34q-5 -41 -33 -72t-64 -31q-72 0 -94 103z" />
    <glyph glyph-name="Edotaccent" unicode="&#x116;" horiz-adv-x="693" 
d="M133 2v729l513 -1v-26h-372q-24 0 -34 -8.5t-10 -31.5q0 -12 -1.5 -134.5t-1.5 -124.5q0 -13 8 -13h91v-24h-87q-11 0 -11 -8l1 -267q0 -32 9.5 -46.5t36.5 -14.5h371v-30h-513zM345 1010q23 0 38.5 -16t15.5 -38q0 -19 -14 -33.5t-36 -14.5q-26 0 -41 13t-15 37
q0 20 15.5 36t36.5 16z" />
    <glyph glyph-name="edotaccent" unicode="&#x117;" horiz-adv-x="472" 
d="M251 426q-46 2 -85.5 -40.5t-44.5 -117.5h231q1 69 -29.5 112.5t-71.5 45.5zM251 454q82 0 130 -62.5t48 -136.5q0 -8 -1.5 -10t-8.5 -2h-297q0 -62 15.5 -107.5t40.5 -67.5t50 -32t51 -10q83 0 132 72q8 11 16 5q12 -8 5 -17q-66 -102 -185 -102q-86 0 -145.5 62.5
t-59.5 153.5q0 104 59.5 179t149.5 75zM235 716q23 0 38.5 -16t15.5 -38q0 -19 -14 -33.5t-36 -14.5q-26 0 -41 13t-15 37q0 20 15.5 36t36.5 16z" />
    <glyph glyph-name="Eogonek" unicode="&#x118;" horiz-adv-x="693" 
d="M133 2v729l513 -1v-26h-372q-24 0 -34 -8.5t-10 -31.5q0 -12 -1.5 -134.5t-1.5 -124.5q0 -13 8 -13h91v-24h-87q-11 0 -11 -8l1 -267q0 -32 9.5 -46.5t36.5 -14.5h371v-30h-513zM277 -155l17 17q28 -19 71 -19q14 0 27.5 10t13.5 23q0 39 -60 39l26 88h33l-22 -63
q34 -1 55 -17.5t21 -38.5q0 -26 -30.5 -45.5t-65.5 -19.5q-46 0 -86 26z" />
    <glyph glyph-name="eogonek" unicode="&#x119;" horiz-adv-x="472" 
d="M251 426q-46 2 -85.5 -40.5t-44.5 -117.5h231q1 69 -29.5 112.5t-71.5 45.5zM251 454q82 0 130 -62.5t48 -136.5q0 -8 -1.5 -10t-8.5 -2h-297q0 -62 15.5 -107.5t40.5 -67.5t50 -32t51 -10q83 0 132 72q8 11 16 5q12 -8 5 -17q-66 -102 -185 -102q-86 0 -145.5 62.5
t-59.5 153.5q0 104 59.5 179t149.5 75zM137 -172l17 17q28 -19 71 -19q14 0 27.5 10t13.5 23q0 39 -60 39l26 88h33l-22 -63q34 -1 55 -17.5t21 -38.5q0 -26 -30.5 -45.5t-65.5 -19.5q-46 0 -86 26z" />
    <glyph glyph-name="Ecaron" unicode="&#x11a;" horiz-adv-x="693" 
d="M133 2v729l513 -1v-26h-372q-24 0 -34 -8.5t-10 -31.5q0 -12 -1.5 -134.5t-1.5 -124.5q0 -13 8 -13h91v-24h-87q-11 0 -11 -8l1 -267q0 -32 9.5 -46.5t36.5 -14.5h371v-30h-513zM350 787h-18l-123 173l16 7l116 -101l124 100l18 -6z" />
    <glyph glyph-name="ecaron" unicode="&#x11b;" horiz-adv-x="472" 
d="M251 426q-46 2 -85.5 -40.5t-44.5 -117.5h231q1 69 -29.5 112.5t-71.5 45.5zM251 454q82 0 130 -62.5t48 -136.5q0 -8 -1.5 -10t-8.5 -2h-297q0 -62 15.5 -107.5t40.5 -67.5t50 -32t51 -10q83 0 132 72q8 11 16 5q12 -8 5 -17q-66 -102 -185 -102q-86 0 -145.5 62.5
t-59.5 153.5q0 104 59.5 179t149.5 75zM240 493h-18l-123 173l16 7l116 -101l124 100l18 -6z" />
    <glyph glyph-name="gcircumflex" unicode="&#x11d;" horiz-adv-x="513" 
d="M198 4q-55 -17 -81.5 -48.5t-21 -61.5t43.5 -52.5t100 -22.5q177 0 177 87q0 23 -14.5 39.5t-41.5 26t-51.5 14.5t-60 10t-50.5 8zM247 427q-41 0 -74.5 -30t-33.5 -105q0 -78 31.5 -107.5t71.5 -29.5q42 0 75.5 31t33.5 108q0 69 -32 101t-72 32zM245 450q72 0 125 -50
q19 38 49 47q24 7 30 -7q7 -18 -36 -38q-13 -7 -30 -12q42 -50 42 -96q0 -69 -52 -115t-131 -46q-36 0 -75 17q-20 -7 -35.5 -20.5t-15.5 -26.5t15.5 -20t53.5 -16q21 -5 81 -12.5t78 -10.5q67 -12 96 -38.5t29 -78.5q0 -57 -56.5 -94t-173.5 -37q-127 0 -184 55
q-44 44 -11 91q31 45 124 68q-120 22 -120 63q0 52 103 85q-89 49 -89 128q0 67 54.5 115.5t128.5 48.5zM252 670h18l123 -173l-16 -7l-116 101l-124 -100l-18 6z" />
    <glyph glyph-name="Gbreve" unicode="&#x11e;" horiz-adv-x="757" 
d="M634 -13l-244 1q-154 1 -247 104t-93 250q0 165 103.5 279.5t234.5 123.5q49 3 91.5 -7.5t68 -28t42.5 -37t24 -33t4 -16.5q-4 -5 -12 -6q-7 -2 -11 5q-54 98 -199 96q-30 0 -59.5 -9t-62.5 -34.5t-57.5 -65.5t-41 -109t-16.5 -158q0 -90 20 -155.5t46.5 -97.5t63.5 -51
t58.5 -22t44.5 -3q104 1 141.5 14.5t37.5 51.5q0 18 -1 84.5t-1 80.5q0 18 -3.5 29t-13.5 15t-17.5 4.5t-27.5 0t-32 -0.5q-7 0 -7 6v14q0 8 7 8l159 -3v-330zM283 953h32q4 -17 23.5 -36t38.5 -19t39.5 19.5t23.5 35.5h34q-5 -41 -33 -72t-64 -31q-72 0 -94 103z" />
    <glyph glyph-name="gbreve" unicode="&#x11f;" horiz-adv-x="513" 
d="M198 4q-55 -17 -81.5 -48.5t-21 -61.5t43.5 -52.5t100 -22.5q177 0 177 87q0 23 -14.5 39.5t-41.5 26t-51.5 14.5t-60 10t-50.5 8zM247 427q-41 0 -74.5 -30t-33.5 -105q0 -78 31.5 -107.5t71.5 -29.5q42 0 75.5 31t33.5 108q0 69 -32 101t-72 32zM245 450q72 0 125 -50
q19 38 49 47q24 7 30 -7q7 -18 -36 -38q-13 -7 -30 -12q42 -50 42 -96q0 -69 -52 -115t-131 -46q-36 0 -75 17q-20 -7 -35.5 -20.5t-15.5 -26.5t15.5 -20t53.5 -16q21 -5 81 -12.5t78 -10.5q67 -12 96 -38.5t29 -78.5q0 -57 -56.5 -94t-173.5 -37q-127 0 -184 55
q-44 44 -11 91q31 45 124 68q-120 22 -120 63q0 52 103 85q-89 49 -89 128q0 67 54.5 115.5t128.5 48.5zM161 659h32q4 -17 23.5 -36t38.5 -19t39.5 19.5t23.5 35.5h34q-5 -41 -33 -72t-64 -31q-72 0 -94 103z" />
    <glyph glyph-name="Gdotaccent" unicode="&#x120;" horiz-adv-x="757" 
d="M634 -13l-244 1q-154 1 -247 104t-93 250q0 165 103.5 279.5t234.5 123.5q49 3 91.5 -7.5t68 -28t42.5 -37t24 -33t4 -16.5q-4 -5 -12 -6q-7 -2 -11 5q-54 98 -199 96q-30 0 -59.5 -9t-62.5 -34.5t-57.5 -65.5t-41 -109t-16.5 -158q0 -90 20 -155.5t46.5 -97.5t63.5 -51
t58.5 -22t44.5 -3q104 1 141.5 14.5t37.5 51.5q0 18 -1 84.5t-1 80.5q0 18 -3.5 29t-13.5 15t-17.5 4.5t-27.5 0t-32 -0.5q-7 0 -7 6v14q0 8 7 8l159 -3v-330zM377 1010q23 0 38.5 -16t15.5 -38q0 -19 -14 -33.5t-36 -14.5q-26 0 -41 13t-15 37q0 20 15.5 36t36.5 16z" />
    <glyph glyph-name="gdotaccent" unicode="&#x121;" horiz-adv-x="513" 
d="M198 4q-55 -17 -81.5 -48.5t-21 -61.5t43.5 -52.5t100 -22.5q177 0 177 87q0 23 -14.5 39.5t-41.5 26t-51.5 14.5t-60 10t-50.5 8zM247 427q-41 0 -74.5 -30t-33.5 -105q0 -78 31.5 -107.5t71.5 -29.5q42 0 75.5 31t33.5 108q0 69 -32 101t-72 32zM245 450q72 0 125 -50
q19 38 49 47q24 7 30 -7q7 -18 -36 -38q-13 -7 -30 -12q42 -50 42 -96q0 -69 -52 -115t-131 -46q-36 0 -75 17q-20 -7 -35.5 -20.5t-15.5 -26.5t15.5 -20t53.5 -16q21 -5 81 -12.5t78 -10.5q67 -12 96 -38.5t29 -78.5q0 -57 -56.5 -94t-173.5 -37q-127 0 -184 55
q-44 44 -11 91q31 45 124 68q-120 22 -120 63q0 52 103 85q-89 49 -89 128q0 67 54.5 115.5t128.5 48.5zM255 716q23 0 38.5 -16t15.5 -38q0 -19 -14 -33.5t-36 -14.5q-26 0 -41 13t-15 37q0 20 15.5 36t36.5 16z" />
    <glyph glyph-name="Hbar" unicode="&#x126;" horiz-adv-x="822" 
d="M87 561v41h646v-41h-646zM221 357v-359h-84v732h84v-340h375v339h85v-732l-85 1v358z" />
    <glyph glyph-name="hbar" unicode="&#x127;" horiz-adv-x="563" 
d="M168 363q25 32 68.5 58t85.5 26q56 0 97.5 -29.5t41.5 -99.5v-318h-69v301q0 52 -28 77t-61 25q-79 0 -133 -61q1 -104 1 -343h-65v736l51 31q14 5 14 -8v-20q0 -20 -0.5 -51.5t-1 -71.5l-1 -79.5t-0.5 -76v-61.5v-35zM58 578h82h34.5t30.5 0.5t13 0.5q14 -1 14 -11v-38
q0 -6 -4.5 -10.5t-9.5 -4.5q-2 0 -11.5 0.5t-27 1.5t-39.5 1h-80q-14 0 -14 8v40q0 12 12 12z" />
    <glyph glyph-name="Itilde" unicode="&#x128;" horiz-adv-x="384" 
d="M235 730v-732h-85l1 732h84zM284 844q22 0 35 8.5t27 35.5l10 -4q-35 -90 -96 -90q-36 0 -79.5 30t-62.5 30q-25 0 -41.5 -11t-38.5 -45l-10 6q24 49 47.5 74t56.5 25q34 0 80 -29.5t72 -29.5z" />
    <glyph glyph-name="itilde" unicode="&#x129;" horiz-adv-x="278" 
d="M111 426l53 24q14 7 14 -9v-440h-67v425zM231 550q22 0 35 8.5t27 35.5l10 -4q-35 -90 -96 -90q-36 0 -79.5 30t-62.5 30q-25 0 -41.5 -11t-38.5 -45l-10 6q24 49 47.5 74t56.5 25q35 0 81 -29.5t71 -29.5z" />
    <glyph glyph-name="Imacron" unicode="&#x12a;" horiz-adv-x="384" 
d="M93 780v16h202v-16h-202zM235 730v-732h-85l1 732h84z" />
    <glyph glyph-name="imacron" unicode="&#x12b;" horiz-adv-x="278" 
d="M52 503v16h202v-16h-202zM111 426l53 24q14 7 14 -9v-440h-67v425z" />
    <glyph glyph-name="Ibreve" unicode="&#x12c;" horiz-adv-x="384" 
d="M235 730v-732h-85l1 732h84zM97 953h32q4 -17 23.5 -36t38.5 -19t39.5 19.5t23.5 35.5h34q-5 -41 -33 -72t-64 -31q-72 0 -94 103z" />
    <glyph glyph-name="ibreve" unicode="&#x12d;" horiz-adv-x="278" 
d="M111 426l53 24q14 7 14 -9v-440h-67v425zM44 659h32q4 -17 23.5 -36t38.5 -19t39.5 19.5t23.5 35.5h34q-5 -41 -33 -72t-64 -31q-72 0 -94 103z" />
    <glyph glyph-name="Iogonek" unicode="&#x12e;" horiz-adv-x="384" 
d="M80 -159l17 17q29 -19 71 -19q14 0 27.5 10t13.5 23q0 39 -60 39l26 88h33l-22 -63q34 -1 55 -17.5t21 -38.5q0 -26 -30.5 -45.5t-65.5 -19.5q-46 0 -86 26zM235 730v-732h-85l1 732h84z" />
    <glyph glyph-name="iogonek" unicode="&#x12f;" horiz-adv-x="278" 
d="M37 -159l17 17q28 -19 71 -19q14 0 27.5 10t13.5 23q0 39 -60 39l26 88h33l-22 -63q34 -1 55 -17.5t21 -38.5q0 -26 -30.5 -45.5t-65.5 -19.5q-46 0 -86 26zM112 431l52 19q14 5 14 -9v-442h-67zM146 701q20 0 33.5 -15.5t13.5 -35.5q0 -19 -12.5 -32.5t-31.5 -13.5
q-23 0 -36 12.5t-13 35.5q0 19 14 34t32 15z" />
    <glyph glyph-name="IJ" unicode="&#x132;" horiz-adv-x="777" 
d="M235 730v-732h-85l1 732h84zM488 -112q78 2 78 111v691l82 43v-734q0 -71 -44.5 -107t-114.5 -36q-53 0 -101 45q-36 34 -23 50q2 3 4 4q9 6 24.5 -10.5t40.5 -37t54 -19.5z" />
    <glyph glyph-name="ij" unicode="&#x133;" horiz-adv-x="538" 
d="M112 431l52 19q14 5 14 -9v-442h-67zM146 701q20 0 33.5 -15.5t13.5 -35.5q0 -19 -12.5 -32.5t-31.5 -13.5q-23 0 -36 12.5t-13 35.5q0 19 14 34t32 15zM462 -95q-15 -91 -122 -91q-30 0 -54 16t-29.5 32t0.5 25q17 11 36 -12q19 -22 44 -22q58 0 60 84l-1 486l52 27
q14 3 14 -9v-536zM431 702q21 0 35 -15t14 -35q0 -18 -12.5 -31t-32.5 -13q-23 0 -37 12t-14 34q0 19 14 33.5t33 14.5z" />
    <glyph glyph-name="jcircumflex" unicode="&#x135;" horiz-adv-x="260" 
d="M184 -95q-15 -91 -122 -91q-30 0 -54 16t-29.5 32t0.5 25q17 11 36 -12q19 -22 44 -22q58 0 60 84l-1 486l52 27q14 3 14 -9v-536zM153 702q21 0 35 -15t14 -35q0 -18 -12.5 -31t-32.5 -13q-23 0 -37 12t-14 34q0 19 14 33.5t33 14.5zM126 670h18l123 -173l-16 -7
l-116 101l-124 -100l-18 6z" />
    <glyph glyph-name="kgreenlandic" unicode="&#x138;" horiz-adv-x="555" 
d="M105 749l52 24q20 9 20 -8l-4 -551l86.5 77.5l112 100.5t50.5 46h47l-180 -154l202 -283h-81l-160 223q-10 14 -24 3q-7 -5 -54 -48l1 -179l-69 -1z" />
    <glyph glyph-name="Lacute" unicode="&#x139;" horiz-adv-x="654" 
d="M619 -2h-476v729h87v-655q0 -34 5.5 -39.5t38.5 -5.5h345v-29zM376 931q31 0 31 -35q0 -8 -6 -16t-21 -18.5l-30 -20.5l-43 -28.5l-51 -34.5l-10 12q20 23 40 48.5l31 40t22.5 28t20 19t16.5 5.5z" />
    <glyph glyph-name="lacute" unicode="&#x13a;" horiz-adv-x="274" 
d="M111 730l50 37q15 5 15 -9v-758h-65v730zM318 816q31 0 31 -35q0 -8 -6 -16t-21 -18.5l-30 -20.5l-43 -28.5l-51 -34.5l-10 12q20 23 40 48.5l31 40t22.5 28t20 19t16.5 5.5z" />
    <glyph glyph-name="Lcaron" unicode="&#x13d;" horiz-adv-x="654" 
d="M619 -2h-476v729h87v-655q0 -34 5.5 -39.5t38.5 -5.5h345v-29zM344 726q22 0 42 -13.5t30 -40.5q6 -16 6 -48q0 -27 -8 -46q-22 -59 -110 -122q-9 -7 -16 1q-10 11 -5 15q51 35 79 74q18 24 18 46q0 20 -21 24q-31 3 -51 17t-20 38q0 23 14.5 39t41.5 16z" />
    <glyph glyph-name="Nacute" unicode="&#x143;" horiz-adv-x="820" 
d="M152 732h72q11 0 16 -8l402 -563q3 -4 7 -3t4 6v568h34q0 -25 -0.5 -213.5t-0.5 -314v-170.5v-39q0 -9 -12 -9q-13 0 -18 8q-6 12 -36 54l-81 112l-102 139l-123 166.5l-120 163.5q-1 2 -4.5 2.5t-3.5 -3.5v-628h-34v732zM459 931q31 0 31 -35q0 -8 -6 -16t-21 -18.5
l-30 -20.5l-43 -28.5l-51 -34.5l-10 12q20 23 40 48.5l31 40t22.5 28t20 19t16.5 5.5z" />
    <glyph glyph-name="nacute" unicode="&#x144;" horiz-adv-x="559" 
d="M172 363q25 34 64.5 59t81.5 25q56 0 97.5 -29.5t41.5 -99.5v-317h-69v298q0 52 -28.5 78t-60.5 26q-71 0 -126 -70q1 -103 1 -333h-67v426l51 24q14 3 14 -9v-78zM329 637q31 0 31 -35q0 -8 -6 -16t-21 -18.5l-30 -20.5l-43 -28.5l-51 -34.5l-10 12q20 23 40 48.5l31 40
t22.5 28t20 19t16.5 5.5z" />
    <glyph glyph-name="Ncaron" unicode="&#x147;" horiz-adv-x="820" 
d="M152 732h72q11 0 16 -8l402 -563q3 -4 7 -3t4 6v568h34q0 -25 -0.5 -213.5t-0.5 -314v-170.5v-39q0 -9 -12 -9q-13 0 -18 8q-6 12 -36 54l-81 112l-102 139l-123 166.5l-120 163.5q-1 2 -4.5 2.5t-3.5 -3.5v-628h-34v732zM414 787h-18l-123 173l16 7l116 -101l124 100
l18 -6z" />
    <glyph glyph-name="ncaron" unicode="&#x148;" horiz-adv-x="559" 
d="M172 363q25 34 64.5 59t81.5 25q56 0 97.5 -29.5t41.5 -99.5v-317h-69v298q0 52 -28.5 78t-60.5 26q-71 0 -126 -70q1 -103 1 -333h-67v426l51 24q14 3 14 -9v-78zM283 493h-18l-123 173l16 7l116 -101l124 100l18 -6z" />
    <glyph glyph-name="Omacron" unicode="&#x14c;" horiz-adv-x="786" 
d="M279 777v16h202v-16h-202zM398 716q-20 0 -37.5 -2t-43 -10.5t-46.5 -22t-43 -40t-37.5 -62t-25 -90t-9.5 -121.5q0 -70 10.5 -126.5t26.5 -93t39.5 -63t44 -40t46.5 -21t41 -9t32 -1.5q26 0 52 6t60.5 28t60 57.5t43.5 102t18 154.5q0 87 -17.5 154t-42.5 103.5
t-58.5 59.5t-60.5 30t-53 7zM389 746q65 0 126.5 -26t111 -72.5t79.5 -118t30 -154.5q0 -175 -99.5 -281t-240.5 -106q-138 0 -242 106t-104 259q0 91 30.5 167.5t79.5 124.5t108.5 74.5t120.5 26.5z" />
    <glyph glyph-name="omacron" unicode="&#x14d;" horiz-adv-x="520" 
d="M161 503v16h202v-16h-202zM261 428q-24 0 -45 -8.5t-43 -29.5t-34.5 -65.5t-12.5 -108.5q0 -62 14 -106t36 -64.5t41.5 -29t38.5 -8.5q18 0 34.5 4t36.5 17.5t34 35t23.5 61t9.5 92.5q0 63 -13 107.5t-35 65t-42.5 29t-42.5 8.5zM258 454q88 0 154 -63t66 -169
q0 -112 -65 -175t-155 -63q-89 0 -152.5 70.5t-63.5 159.5q0 109 69 174.5t147 65.5z" />
    <glyph glyph-name="Obreve" unicode="&#x14e;" horiz-adv-x="786" 
d="M398 716q-20 0 -37.5 -2t-43 -10.5t-46.5 -22t-43 -40t-37.5 -62t-25 -90t-9.5 -121.5q0 -70 10.5 -126.5t26.5 -93t39.5 -63t44 -40t46.5 -21t41 -9t32 -1.5q26 0 52 6t60.5 28t60 57.5t43.5 102t18 154.5q0 87 -17.5 154t-42.5 103.5t-58.5 59.5t-60.5 30t-53 7z
M389 746q65 0 126.5 -26t111 -72.5t79.5 -118t30 -154.5q0 -175 -99.5 -281t-240.5 -106q-138 0 -242 106t-104 259q0 91 30.5 167.5t79.5 124.5t108.5 74.5t120.5 26.5zM297 953h32q4 -17 23.5 -36t38.5 -19t39.5 19.5t23.5 35.5h34q-5 -41 -33 -72t-64 -31q-72 0 -94 103z
" />
    <glyph glyph-name="obreve" unicode="&#x14f;" horiz-adv-x="520" 
d="M261 428q-24 0 -45 -8.5t-43 -29.5t-34.5 -65.5t-12.5 -108.5q0 -62 14 -106t36 -64.5t41.5 -29t38.5 -8.5q18 0 34.5 4t36.5 17.5t34 35t23.5 61t9.5 92.5q0 63 -13 107.5t-35 65t-42.5 29t-42.5 8.5zM258 454q88 0 154 -63t66 -169q0 -112 -65 -175t-155 -63
q-89 0 -152.5 70.5t-63.5 159.5q0 109 69 174.5t147 65.5zM165 659h32q4 -17 23.5 -36t38.5 -19t39.5 19.5t23.5 35.5h34q-5 -41 -33 -72t-64 -31q-72 0 -94 103z" />
    <glyph glyph-name="OE" unicode="&#x152;" horiz-adv-x="1126" 
d="M388 716q-27 0 -51 -4.5t-59.5 -25t-60 -55t-43 -103t-18.5 -160.5q0 -70 10 -126.5t25.5 -93t38 -63t43 -40t45 -21t38.5 -9t30 -1.5q79 0 129 24.5t73 83.5v136v203v139q-32 116 -200 116zM530 731h107h399v-32h-359v-294q0 -13 8 -13h91l1 -33h-87q-11 0 -11 -6v-260
q0 -32 8.5 -45.5t36.5 -13.5h339l-2 -32h-96.5t-196 -0.5t-115.5 -0.5h-134q-12 0 -53 -6.5t-80 -6.5q-132 0 -234 106.5t-102 258.5q0 91 29.5 167.5t77.5 124.5t106 74.5t116 26.5q54 0 98.5 -7.5t52.5 -7.5z" />
    <glyph glyph-name="oe" unicode="&#x153;" horiz-adv-x="787" 
d="M251 428q-125 0 -125 -212q0 -62 12.5 -106t32.5 -64.5t38.5 -29t36.5 -8.5q122 0 122 210t-117 210zM569 454q82 0 129 -62.5t47 -136.5q0 -8 -1.5 -10t-8.5 -2h-297q0 -62 15.5 -107.5t41 -67.5t51 -32t51.5 -10q81 0 130 72q8 11 16 5q12 -8 5 -17q-31 -48 -73 -75
t-110 -27q-47 0 -87.5 24t-66.5 63q-28 -40 -71.5 -63.5t-91.5 -23.5q-88 0 -147 70t-59 160q0 110 64.5 175t141.5 65q103 0 169 -87q61 87 152 87zM569 426q-48 0 -86.5 -37.5t-43.5 -111.5h223q3 149 -93 149z" />
    <glyph glyph-name="Racute" unicode="&#x154;" horiz-adv-x="713" 
d="M289 705q-38 -2 -44.5 -5.5t-6.5 -24.5v-282q123 0 139 2q150 18 150 149q0 72 -32 112t-118 48q-48 4 -88 1zM147 736h212q131 0 201.5 -50t70.5 -140q0 -75 -67 -123t-147 -56q218 -333 243 -367l-117 1l-192 360h-113v-361l-91 -1v737zM406 931q31 0 31 -35
q0 -8 -6 -16t-21 -18.5l-30 -20.5l-43 -28.5l-51 -34.5l-10 12q20 23 40 48.5l31 40t22.5 28t20 19t16.5 5.5z" />
    <glyph glyph-name="racute" unicode="&#x155;" horiz-adv-x="370" 
d="M105 429l51 23q6 3 9.5 0t3.5 -8l2 -56q26 53 105 63q61 8 87 -13q16 -13 1 -31q-5 -5 -18 -5t-28 5.5t-35 6t-39 -3t-38.5 -21.5t-33.5 -49q2 -326 2 -340h-69v429zM234 637q31 0 31 -35q0 -8 -6 -16t-21 -18.5l-30 -20.5l-43 -28.5l-51 -34.5l-10 12q20 23 40 48.5
l31 40t22.5 28t20 19t16.5 5.5z" />
    <glyph glyph-name="Rcaron" unicode="&#x158;" horiz-adv-x="713" 
d="M289 705q-38 -2 -44.5 -5.5t-6.5 -24.5v-282q123 0 139 2q150 18 150 149q0 72 -32 112t-118 48q-48 4 -88 1zM147 736h212q131 0 201.5 -50t70.5 -140q0 -75 -67 -123t-147 -56q218 -333 243 -367l-117 1l-192 360h-113v-361l-91 -1v737zM360 787h-18l-123 173l16 7
l116 -101l124 100l18 -6z" />
    <glyph glyph-name="rcaron" unicode="&#x159;" horiz-adv-x="370" 
d="M105 429l51 23q6 3 9.5 0t3.5 -8l2 -56q26 53 105 63q61 8 87 -13q16 -13 1 -31q-5 -5 -18 -5t-28 5.5t-35 6t-39 -3t-38.5 -21.5t-33.5 -49q2 -326 2 -340h-69v429zM189 493h-18l-123 173l16 7l116 -101l124 100l18 -6z" />
    <glyph glyph-name="Sacute" unicode="&#x15a;" horiz-adv-x="594" 
d="M268 745q94 3 147 -28.5t82 -94.5q2 -6 -2 -9q-1 0 -4 -2t-5.5 -3t-5 0t-3.5 4q-35 60 -83.5 83t-123.5 22q-60 -1 -99.5 -37.5t-39.5 -86.5q0 -88 115 -127l76 -24t92 -33q55 -24 92.5 -73.5t37.5 -127.5q0 -92 -80 -153.5t-208 -59.5q-29 1 -62 13.5t-59.5 31t-47.5 38
t-31.5 35t-7.5 20.5q4 7 5 7q7 1 27.5 -15l44.5 -36.5t61.5 -37.5t74.5 -17q93 0 156 42t64 109q1 27 -11 50t-28.5 37.5t-46.5 29.5t-50 22l-56.5 19t-50.5 17l-38 14.5t-42 22.5t-44.5 35t-30.5 49.5t-14 68.5q0 82 61 137.5t138 57.5zM346 931q31 0 31 -35q0 -8 -6 -16
t-21 -18.5l-30 -20.5l-43 -28.5l-51 -34.5l-10 12q20 23 40 48.5l31 40t22.5 28t20 19t16.5 5.5z" />
    <glyph glyph-name="sacute" unicode="&#x15b;" horiz-adv-x="409" 
d="M220 450q71 -8 98 -56q16 -27 4 -35q-2 -2 -5 -1q-6 2 -14 15t-27 27t-55 20q-38 6 -63.5 -10.5t-30.5 -40.5q-5 -26 10 -44.5t47 -37.5q85 -55 104 -69q34 -24 51 -61t11 -74q-9 -52 -61.5 -81t-109.5 -22q-74 10 -123 67q-30 35 -19 50q3 4 10 4q4 0 15 -12.5l25 -28
t39.5 -31t54.5 -19.5q39 -6 66 12t33 47q6 32 -2 51.5t-32 36.5q-9 7 -44.5 25.5t-64.5 37.5q-83 54 -64 144q10 53 52 72.5t95 13.5zM254 637q31 0 31 -35q0 -8 -6 -16t-21 -18.5l-30 -20.5l-43 -28.5l-51 -34.5l-10 12q20 23 40 48.5l31 40t22.5 28t20 19t16.5 5.5z" />
    <glyph glyph-name="scircumflex" unicode="&#x15d;" horiz-adv-x="409" 
d="M220 450q71 -8 98 -56q16 -27 4 -35q-2 -2 -5 -1q-6 2 -14 15t-27 27t-55 20q-38 6 -63.5 -10.5t-30.5 -40.5q-5 -26 10 -44.5t47 -37.5q85 -55 104 -69q34 -24 51 -61t11 -74q-9 -52 -61.5 -81t-109.5 -22q-74 10 -123 67q-30 35 -19 50q3 4 10 4q4 0 15 -12.5l25 -28
t39.5 -31t54.5 -19.5q39 -6 66 12t33 47q6 32 -2 51.5t-32 36.5q-9 7 -44.5 25.5t-64.5 37.5q-83 54 -64 144q10 53 52 72.5t95 13.5zM200 670h18l123 -173l-16 -7l-116 101l-124 -100l-18 6z" />
    <glyph glyph-name="Scedilla" unicode="&#x15e;" horiz-adv-x="594" 
d="M268 745q94 3 147 -28.5t82 -94.5q2 -6 -2 -9q-1 0 -4 -2t-5.5 -3t-5 0t-3.5 4q-35 60 -83.5 83t-123.5 22q-60 -1 -99.5 -37.5t-39.5 -86.5q0 -88 115 -127l76 -24t92 -33q55 -24 92.5 -73.5t37.5 -127.5q0 -92 -80 -153.5t-208 -59.5q-29 1 -62 13.5t-59.5 31t-47.5 38
t-31.5 35t-7.5 20.5q4 7 5 7q7 1 27.5 -15l44.5 -36.5t61.5 -37.5t74.5 -17q93 0 156 42t64 109q1 27 -11 50t-28.5 37.5t-46.5 29.5t-50 22l-56.5 19t-50.5 17l-38 14.5t-42 22.5t-44.5 35t-30.5 49.5t-14 68.5q0 82 61 137.5t138 57.5zM206 -158l17 17q29 -19 71 -19
q14 0 27.5 10t13.5 23q0 39 -60 39l26 88h33l-22 -63q34 -1 55 -17.5t21 -38.5q0 -26 -30.5 -45.5t-65.5 -19.5q-46 0 -86 26z" />
    <glyph glyph-name="scedilla" unicode="&#x15f;" horiz-adv-x="409" 
d="M220 450q71 -8 98 -56q16 -27 4 -35q-2 -2 -5 -1q-6 2 -14 15t-27 27t-55 20q-38 6 -63.5 -10.5t-30.5 -40.5q-5 -26 10 -44.5t47 -37.5q85 -55 104 -69q34 -24 51 -61t11 -74q-9 -52 -61.5 -81t-109.5 -22q-74 10 -123 67q-30 35 -19 50q3 4 10 4q4 0 15 -12.5l25 -28
t39.5 -31t54.5 -19.5q39 -6 66 12t33 47q6 32 -2 51.5t-32 36.5q-9 7 -44.5 25.5t-64.5 37.5q-83 54 -64 144q10 53 52 72.5t95 13.5zM113 -158l17 17q28 -19 71 -19q14 0 27.5 10t13.5 23q0 39 -60 39l26 88h33l-22 -63q34 -1 55 -17.5t21 -38.5q0 -26 -30.5 -45.5
t-65.5 -19.5q-46 0 -86 26z" />
    <glyph glyph-name="Scaron" unicode="&#x160;" horiz-adv-x="594" 
d="M268 745q94 3 147 -28.5t82 -94.5q2 -6 -2 -9q-1 0 -4 -2t-5.5 -3t-5 0t-3.5 4q-35 60 -83.5 83t-123.5 22q-60 -1 -99.5 -37.5t-39.5 -86.5q0 -88 115 -127l76 -24t92 -33q55 -24 92.5 -73.5t37.5 -127.5q0 -92 -80 -153.5t-208 -59.5q-29 1 -62 13.5t-59.5 31t-47.5 38
t-31.5 35t-7.5 20.5q4 7 5 7q7 1 27.5 -15l44.5 -36.5t61.5 -37.5t74.5 -17q93 0 156 42t64 109q1 27 -11 50t-28.5 37.5t-46.5 29.5t-50 22l-56.5 19t-50.5 17l-38 14.5t-42 22.5t-44.5 35t-30.5 49.5t-14 68.5q0 82 61 137.5t138 57.5zM301 763h-18l-123 173l16 7
l116 -101l124 100l18 -6z" />
    <glyph glyph-name="scaron" unicode="&#x161;" horiz-adv-x="409" 
d="M220 450q71 -8 98 -56q16 -27 4 -35q-2 -2 -5 -1q-6 2 -14 15t-27 27t-55 20q-38 6 -63.5 -10.5t-30.5 -40.5q-5 -26 10 -44.5t47 -37.5q85 -55 104 -69q34 -24 51 -61t11 -74q-9 -52 -61.5 -81t-109.5 -22q-74 10 -123 67q-30 35 -19 50q3 4 10 4q4 0 15 -12.5l25 -28
t39.5 -31t54.5 -19.5q39 -6 66 12t33 47q6 32 -2 51.5t-32 36.5q-9 7 -44.5 25.5t-64.5 37.5q-83 54 -64 144q10 53 52 72.5t95 13.5zM201 493h-18l-123 173l16 7l116 -101l124 100l18 -6z" />
    <glyph glyph-name="Tcaron" unicode="&#x164;" horiz-adv-x="721" 
d="M278 703l-260 1v29h687v-29h-261h-12t-9 -1t-6.5 -1t-4.5 -3t-3 -3.5t-1.5 -5.5t-1 -6t-0.5 -8.5v-10.5l-2 -665h-84v665q0 27 -5.5 32t-36.5 6zM364 787h-18l-123 173l16 7l116 -101l124 100l18 -6z" />
    <glyph glyph-name="tcaron" unicode="&#x165;" horiz-adv-x="523" 
d="M155 583q7 0 8.5 -2t0.5 -9l1 -145h79v-27h-79v-306q3 -36 15 -51t40 -16q56 -3 70 18q4 6 11 1q4 -3 2 -14q-2 -19 -37 -34t-71 -13q-41 2 -70.5 22.5t-30.5 62.5l1 330q-55 2 -58 2q-12 -2 -12 10q0 6 31 14q67 12 84 145q1 12 15 12zM415 738q22 0 42 -13.5t30 -40.5
q6 -16 6 -48q0 -27 -8 -46q-22 -59 -110 -122q-9 -7 -16 1q-10 11 -5 15q51 35 79 74q18 24 18 46q0 20 -21 24q-31 3 -51 17t-20 38q0 23 14.5 39t41.5 16z" />
    <glyph glyph-name="Utilde" unicode="&#x168;" horiz-adv-x="814" 
d="M134 729h88v-466q0 -122 52.5 -183.5t145.5 -61.5q120 0 172.5 64.5t52.5 167.5v479h37v-479q0 -121 -67 -193t-194 -72q-135 0 -211 62t-76 186v496zM499 844q22 0 35 8.5t27 35.5l10 -4q-35 -90 -96 -90q-36 0 -79.5 30t-62.5 30q-25 0 -41.5 -11t-38.5 -45l-10 6
q24 49 47.5 74t56.5 25q35 0 81 -29.5t71 -29.5z" />
    <glyph glyph-name="utilde" unicode="&#x169;" horiz-adv-x="528" 
d="M86 415l65 34q5 3 8.5 0.5t3.5 -7.5q0 -1 -3 -138.5t-3 -154.5q0 -49 24 -81.5t69 -32.5q15 0 26 1t24.5 4.5t19.5 5.5t24 9t25 10l-1 382h68v-453l-47 1q-20 -1 -20 11q0 1 1.5 12t0.5 26q-79 -56 -146 -56q-52 0 -95.5 30.5t-43.5 95.5v301zM356 550q22 0 35 8.5
t27 35.5l10 -4q-35 -90 -96 -90q-36 0 -79.5 30t-62.5 30q-25 0 -41.5 -11t-38.5 -45l-10 6q24 49 47.5 74t56.5 25q34 0 80 -29.5t72 -29.5z" />
    <glyph glyph-name="Umacron" unicode="&#x16a;" horiz-adv-x="814" 
d="M302 778v16h202v-16h-202zM134 729h88v-466q0 -122 52.5 -183.5t145.5 -61.5q120 0 172.5 64.5t52.5 167.5v479h37v-479q0 -121 -67 -193t-194 -72q-135 0 -211 62t-76 186v496z" />
    <glyph glyph-name="umacron" unicode="&#x16b;" horiz-adv-x="528" 
d="M162 503v16h202v-16h-202zM86 415l65 34q5 3 8.5 0.5t3.5 -7.5q0 -1 -3 -138.5t-3 -154.5q0 -49 24 -81.5t69 -32.5q15 0 26 1t24.5 4.5t19.5 5.5t24 9t25 10l-1 382h68v-453l-47 1q-20 -1 -20 11q0 1 1.5 12t0.5 26q-79 -56 -146 -56q-52 0 -95.5 30.5t-43.5 95.5v301z
" />
    <glyph glyph-name="Ubreve" unicode="&#x16c;" horiz-adv-x="814" 
d="M134 729h88v-466q0 -122 52.5 -183.5t145.5 -61.5q120 0 172.5 64.5t52.5 167.5v479h37v-479q0 -121 -67 -193t-194 -72q-135 0 -211 62t-76 186v496zM311 953h32q4 -17 23.5 -36t38.5 -19t39.5 19.5t23.5 35.5h34q-5 -41 -33 -72t-64 -31q-72 0 -94 103z" />
    <glyph glyph-name="ubreve" unicode="&#x16d;" horiz-adv-x="528" 
d="M86 415l65 34q5 3 8.5 0.5t3.5 -7.5q0 -1 -3 -138.5t-3 -154.5q0 -49 24 -81.5t69 -32.5q15 0 26 1t24.5 4.5t19.5 5.5t24 9t25 10l-1 382h68v-453l-47 1q-20 -1 -20 11q0 1 1.5 12t0.5 26q-79 -56 -146 -56q-52 0 -95.5 30.5t-43.5 95.5v301zM169 659h32q4 -17 23.5 -36
t38.5 -19t39.5 19.5t23.5 35.5h34q-5 -41 -33 -72t-64 -31q-72 0 -94 103z" />
    <glyph glyph-name="Uring" unicode="&#x16e;" horiz-adv-x="814" 
d="M134 729h88v-466q0 -122 52.5 -183.5t145.5 -61.5q120 0 172.5 64.5t52.5 167.5v479h37v-479q0 -121 -67 -193t-194 -72q-135 0 -211 62t-76 186v496zM407 920q-25 0 -43 -18t-18 -43t18 -43t43 -18t43 18t18 43t-18 43t-43 18zM407 949q37 0 63.5 -26.5t26.5 -63.5
t-26.5 -63.5t-63.5 -26.5t-63.5 26.5t-26.5 63.5t26.5 63.5t63.5 26.5z" />
    <glyph glyph-name="uring" unicode="&#x16f;" horiz-adv-x="528" 
d="M86 415l65 34q5 3 8.5 0.5t3.5 -7.5q0 -1 -3 -138.5t-3 -154.5q0 -49 24 -81.5t69 -32.5q15 0 26 1t24.5 4.5t19.5 5.5t24 9t25 10l-1 382h68v-453l-47 1q-20 -1 -20 11q0 1 1.5 12t0.5 26q-79 -56 -146 -56q-52 0 -95.5 30.5t-43.5 95.5v301zM264 626q-25 0 -43 -18
t-18 -43t18 -43t43 -18t43 18t18 43t-18 43t-43 18zM264 655q37 0 63.5 -26.5t26.5 -63.5t-26.5 -63.5t-63.5 -26.5t-63.5 26.5t-26.5 63.5t26.5 63.5t63.5 26.5z" />
    <glyph glyph-name="Uogonek" unicode="&#x172;" horiz-adv-x="814" 
d="M314 -173l17 17q29 -19 71 -19q14 0 27.5 10t13.5 23q0 39 -60 39l26 88h33l-22 -63q34 -1 55 -17.5t21 -38.5q0 -26 -30.5 -45.5t-65.5 -19.5q-46 0 -86 26zM134 729h88v-466q0 -122 52.5 -183.5t145.5 -61.5q120 0 172.5 64.5t52.5 167.5v479h37v-479q0 -121 -67 -193
t-194 -72q-135 0 -211 62t-76 186v496z" />
    <glyph glyph-name="uogonek" unicode="&#x173;" horiz-adv-x="528" 
d="M293 -163l17 17q28 -19 71 -19q14 0 27.5 10t13.5 23q0 39 -60 39l26 88h33l-22 -63q34 -1 55 -17.5t21 -38.5q0 -26 -30.5 -45.5t-65.5 -19.5q-46 0 -86 26zM86 415l65 34q5 3 8.5 0.5t3.5 -7.5q0 -1 -3 -138.5t-3 -154.5q0 -49 24 -81.5t69 -32.5q15 0 26 1t24.5 4.5
t19.5 5.5t24 9t25 10l-1 382h68v-453l-47 1q-20 -1 -20 11q0 1 1.5 12t0.5 26q-79 -56 -146 -56q-52 0 -95.5 30.5t-43.5 95.5v301z" />
    <glyph glyph-name="wcircumflex" unicode="&#x175;" horiz-adv-x="734" 
d="M62 437h69q120 -327 122 -335q1 -6 5.5 -6t6.5 6l113 307h24q109 -304 111 -311q2 -5 5 -5t5 5l121 339h34l-168 -445q-2 -8 -6 -8h-14q-3 0 -6 8q-110 302 -111 306q-4 11 -10 1l-108 -303q-3 -11 -8 -11h-13q-6 0 -8 7zM363 670h18l123 -173l-16 -7l-116 101l-124 -100
l-18 6z" />
    <glyph glyph-name="ycircumflex" unicode="&#x177;" horiz-adv-x="497" 
d="M403 431h33q-151 -403 -163 -431q-27 -65 -49 -98q-20 -29 -43 -49t-43.5 -29t-38.5 -12t-29.5 0t-15.5 9q-6 16 -3 19t20.5 6.5t36 5.5t43.5 16t43 38q4 6 11.5 20.5l18.5 37.5t18 36l-190 431h75q138 -330 141 -338q2 -6 6.5 -6t5.5 5zM244 670h18l123 -173l-16 -7
l-116 101l-124 -100l-18 6z" />
    <glyph glyph-name="Ydieresis" unicode="&#x178;" horiz-adv-x="755" 
d="M405 345l86.5 140l104.5 168.5t47 76.5h41q-11 -14 -116 -181.5t-144 -237.5v-310h-86v294l-263 435h108q0 -10 222 -385zM320 865q19 0 32 -13t13 -32q0 -21 -12.5 -33t-32.5 -12q-19 0 -32 13.5t-13 31.5q0 20 13 32.5t32 12.5zM483 865q19 0 32 -13t13 -32
q0 -21 -12.5 -33t-32.5 -12q-19 0 -32 13.5t-13 31.5q0 20 13 32.5t32 12.5z" />
    <glyph glyph-name="Zacute" unicode="&#x179;" horiz-adv-x="557" 
d="M24 699v27h494q6 0 7 -8.5t-3 -13.5l-395 -663l426 -1v-40h-519q-12 0 -15 11t3 18l230 362.5l180 307.5h-408zM328 931q31 0 31 -35q0 -8 -6 -16t-21 -18.5l-30 -20.5l-43 -28.5l-51 -34.5l-10 12q20 23 40 48.5l31 40t22.5 28t20 19t16.5 5.5z" />
    <glyph glyph-name="zacute" unicode="&#x17a;" horiz-adv-x="400" 
d="M28 430h337q12 0 12 -10q0 -12 -6 -19l-130 -180t-130 -179q-10 -10 0 -10h270v-33l-348 1q-13 0 -13 8q0 4 2 7t133.5 190.5t134.5 191.5q9 12 -3 12h-259q0 1 -0.5 7t-1 9t1.5 5zM249 637q31 0 31 -35q0 -8 -6 -16t-21 -18.5l-30 -20.5l-43 -28.5l-51 -34.5l-10 12
q20 23 40 48.5l31 40t22.5 28t20 19t16.5 5.5z" />
    <glyph glyph-name="Zdotaccent" unicode="&#x17b;" horiz-adv-x="557" 
d="M24 699v27h494q6 0 7 -8.5t-3 -13.5l-395 -663l426 -1v-40h-519q-12 0 -15 11t3 18l230 362.5l180 307.5h-408zM277 1010q23 0 38.5 -16t15.5 -38q0 -19 -14 -33.5t-36 -14.5q-26 0 -41 13t-15 37q0 20 15.5 36t36.5 16z" />
    <glyph glyph-name="zdotaccent" unicode="&#x17c;" horiz-adv-x="400" 
d="M28 430h337q12 0 12 -10q0 -12 -6 -19l-130 -180t-130 -179q-10 -10 0 -10h270v-33l-348 1q-13 0 -13 8q0 4 2 7t133.5 190.5t134.5 191.5q9 12 -3 12h-259q0 1 -0.5 7t-1 9t1.5 5zM199 716q23 0 38.5 -16t15.5 -38q0 -19 -14 -33.5t-36 -14.5q-26 0 -41 13t-15 37
q0 20 15.5 36t36.5 16z" />
    <glyph glyph-name="Zcaron" unicode="&#x17d;" horiz-adv-x="557" 
d="M24 699v27h494q6 0 7 -8.5t-3 -13.5l-395 -663l426 -1v-40h-519q-12 0 -15 11t3 18l230 362.5l180 307.5h-408zM311 763h-18l-123 173l16 7l116 -101l124 100l18 -6z" />
    <glyph glyph-name="zcaron" unicode="&#x17e;" horiz-adv-x="400" 
d="M28 430h337q12 0 12 -10q0 -12 -6 -19l-130 -180t-130 -179q-10 -10 0 -10h270v-33l-348 1q-13 0 -13 8q0 4 2 7t133.5 190.5t134.5 191.5q9 12 -3 12h-259q0 1 -0.5 7t-1 9t1.5 5zM211 493h-18l-123 173l16 7l116 -101l124 100l18 -6z" />
    <glyph glyph-name="florin" unicode="&#x192;" 
d="M115 -172q-37 0 -52 19t-15 35q0 20 14.5 31t31.5 7q22 -6 26 -27t-11 -34q9 -3 17 -3q53 0 67 81q26 146 59 453l2 15h-80v31h83q8 66 34.5 138t67.5 111q38 36 82 36q45 0 65 -26t20 -47q0 -22 -14.5 -36t-33.5 -12q-14 2 -24.5 12.5t-10.5 28.5q0 31 30 44
q-16 11 -35 11q-65 0 -81 -104l-29 -156h92v-31h-94l-16 -124.5t-17 -141.5q-18 -176 -74 -251q-45 -60 -104 -60z" />
    <glyph glyph-name="circumflex" unicode="&#x2c6;" horiz-adv-x="333" 
d="M163 670h18l123 -173l-16 -7l-116 101l-124 -100l-18 6z" />
    <glyph glyph-name="caron" unicode="&#x2c7;" horiz-adv-x="333" 
d="M171 493h-18l-123 173l16 7l116 -101l124 100l18 -6z" />
    <glyph glyph-name="breve" unicode="&#x2d8;" horiz-adv-x="833" 
d="M289 659h32q4 -17 23.5 -36t38.5 -19t39.5 19.5t23.5 35.5h34q-5 -41 -33 -72t-64 -31q-72 0 -94 103z" />
    <glyph glyph-name="dotaccent" unicode="&#x2d9;" horiz-adv-x="333" 
d="M132 716q23 0 38.5 -16t15.5 -38q0 -19 -14 -33.5t-36 -14.5q-26 0 -41 13t-15 37q0 20 15.5 36t36.5 16z" />
    <glyph glyph-name="ring" unicode="&#x2da;" horiz-adv-x="333" 
d="M167 626q-25 0 -43 -18t-18 -43t18 -43t43 -18t43 18t18 43t-18 43t-43 18zM167 655q37 0 63.5 -26.5t26.5 -63.5t-26.5 -63.5t-63.5 -26.5t-63.5 26.5t-26.5 63.5t26.5 63.5t63.5 26.5z" />
    <glyph glyph-name="tilde" unicode="&#x2dc;" horiz-adv-x="333" 
d="M260 550q22 0 35 8.5t27 35.5l10 -4q-35 -90 -96 -90q-36 0 -79.5 30t-62.5 30q-25 0 -41.5 -11t-38.5 -45l-10 6q24 49 47.5 74t56.5 25q34 0 80 -29.5t72 -29.5z" />
    <glyph glyph-name="endash" unicode="&#x2013;" horiz-adv-x="500" 
d="M0 262h500v-47h-500v47z" />
    <glyph glyph-name="emdash" unicode="&#x2014;" horiz-adv-x="1000" 
d="M0 262h1000v-47h-1000v47z" />
    <glyph glyph-name="quoteleft" unicode="&#x2018;" horiz-adv-x="196" 
d="M100 464q-52 0 -72 53q-6 16 -6 49q0 26 8 46q21 57 109 122q9 7 17 -1q10 -11 5 -15q-51 -37 -80 -74q-17 -25 -17 -47q0 -10 6.5 -16t14.5 -7q71 -9 71 -55q0 -24 -14.5 -39.5t-41.5 -15.5z" />
    <glyph glyph-name="quoteright" unicode="&#x2019;" horiz-adv-x="196" 
d="M88 738q22 0 42 -13.5t30 -40.5q6 -16 6 -48q0 -27 -8 -46q-22 -59 -110 -122q-9 -7 -16 1q-10 11 -5 15q51 35 79 74q18 24 18 46q0 20 -21 24q-31 3 -51 17t-20 38q0 23 14.5 39t41.5 16z" />
    <glyph glyph-name="quotesinglbase" unicode="&#x201a;" horiz-adv-x="196" 
d="M88 102q22 0 42 -13.5t30 -40.5q6 -16 6 -48q0 -27 -8 -46q-22 -59 -110 -122q-9 -7 -16 1q-10 11 -5 15q51 35 79 74q18 24 18 46q0 20 -21 24q-31 3 -51 17t-20 38q0 23 14.5 39t41.5 16z" />
    <glyph glyph-name="quotedblleft" unicode="&#x201c;" horiz-adv-x="392" 
d="M296 464q-52 0 -72 53q-6 16 -6 49q0 26 8 46q21 57 109 122q9 7 17 -1q10 -11 5 -15q-51 -37 -80 -74q-17 -25 -17 -47q0 -10 6.5 -16t14.5 -7q71 -9 71 -55q0 -24 -14.5 -39.5t-41.5 -15.5zM100 464q-52 0 -72 53q-6 16 -6 49q0 26 8 46q21 57 109 122q9 7 17 -1
q10 -11 5 -15q-51 -37 -80 -74q-17 -25 -17 -47q0 -10 6.5 -16t14.5 -7q71 -9 71 -55q0 -24 -14.5 -39.5t-41.5 -15.5z" />
    <glyph glyph-name="quotedblright" unicode="&#x201d;" horiz-adv-x="392" 
d="M284 738q22 0 42 -13.5t30 -40.5q6 -16 6 -48q0 -27 -8 -46q-22 -59 -110 -122q-9 -7 -16 1q-10 11 -5 15q51 35 79 74q18 24 18 46q0 20 -21 24q-31 3 -51 17t-20 38q0 23 14.5 39t41.5 16zM88 738q22 0 42 -13.5t30 -40.5q6 -16 6 -48q0 -27 -8 -46q-22 -59 -110 -122
q-9 -7 -16 1q-10 11 -5 15q51 35 79 74q18 24 18 46q0 20 -21 24q-31 3 -51 17t-20 38q0 23 14.5 39t41.5 16z" />
    <glyph glyph-name="quotedblbase" unicode="&#x201e;" horiz-adv-x="392" 
d="M282 102q22 0 42 -13.5t30 -40.5q6 -16 6 -48q0 -27 -8 -46q-22 -59 -110 -122q-9 -7 -16 1q-10 11 -5 15q51 35 79 74q18 24 18 46q0 20 -21 24q-31 3 -51 17t-20 38q0 23 14.5 39t41.5 16zM88 102q22 0 42 -13.5t30 -40.5q6 -16 6 -48q0 -27 -8 -46q-22 -59 -110 -122
q-9 -7 -16 1q-10 11 -5 15q51 35 79 74q18 24 18 46q0 20 -21 24q-31 3 -51 17t-20 38q0 23 14.5 39t41.5 16z" />
    <glyph glyph-name="dagger" unicode="&#x2020;" horiz-adv-x="503" 
d="M253 790q21 0 33 -21.5t12 -46.5q0 -21 -15 -83.5t-15 -119.5q8 -3 29 -12.5l32.5 -14.5t26.5 -8.5t24 -1.5q-9 14 -9 30q0 18 13.5 30t34.5 12q20 0 31.5 -12.5t11.5 -34.5q0 -23 -23 -38t-50 -15q-64 0 -121 22q0 -33 27 -62q10 -10 10 -18q0 -6 -4 -22
q-3 -14 -10.5 -95t-14.5 -210.5t-7 -234.5q0 -9 -3 -11.5t-11 -2.5q-13 0 -13 14q0 106 -8 236.5t-16.5 211.5t-12.5 96q-2 8 -2 16q0 5 8 18l6 9t5.5 8.5t4.5 9t3.5 9.5t2.5 11t1.5 13.5t-0.5 16.5l-23 11.5t-27 13t-22 8.5t-23 4.5t-14 -5.5q10 -14 10 -29
q0 -16 -14.5 -29t-34.5 -13q-16 0 -29.5 13.5t-13.5 30.5q0 25 25 41.5t67 16.5q29 0 104 -22q-1 46 -16.5 106.5t-15.5 82.5q0 28 12.5 49.5t33.5 21.5z" />
    <glyph glyph-name="daggerdbl" unicode="&#x2021;" horiz-adv-x="486" 
d="M201 739q0 24 12 38.5t30 14.5q19 0 32 -16t13 -42q0 -23 -15 -69t-15 -77q66 -38 108 -28q-4 8 -4 19q0 23 14.5 32.5t26.5 9.5q22 0 33.5 -18t0.5 -38q-17 -33 -76 -33q-47 0 -101 17q0 -21 9 -34.5t17 -21.5t6 -17l-33 -155q-2 -9 0 -17l37 -160q2 -7 -1 -11t-11 -12
t-14 -18q-12 -21 -12 -47v-7l30 -12q40 -16 66 -16q6 0 20 2q-11 17 -0.5 37.5t32.5 21.5q16 1 27.5 -10t11.5 -27q0 -23 -21.5 -37.5t-58.5 -14.5q-51 0 -105 23q0 -29 19 -87.5t10 -84.5q-11 -28 -42 -28q-18 0 -32.5 12.5t-14.5 42.5q0 25 15.5 73.5t14.5 79.5
q-61 35 -100 35q-2 0 -6 -0.5t-6 -0.5q3 -6 5 -15t-1.5 -22t-16.5 -22q-9 -7 -23 -7q-21 0 -30 13.5t-9 24.5q0 24 23 39t60 15q52 0 102 -22q-1 21 -7.5 35.5t-13 20t-10.5 12t-2 15.5l36 157q2 8 -1 19l-35 153q-3 6 -0.5 11t5.5 6t9.5 9t12.5 20q9 18 9 39q-51 33 -93 33
q-11 0 -16 -1q6 -11 6 -22q0 -23 -14.5 -32t-26.5 -9q-21 0 -29.5 13.5t-8.5 24.5q0 24 22 39t57 15q43 0 100 -20q-1 28 -14 76t-13 63z" />
    <glyph glyph-name="bullet" unicode="&#x2022;" horiz-adv-x="295" 
d="M146 429q55 0 85.5 -32.5t30.5 -80.5t-31 -82t-82 -34q-50 0 -83.5 31.5t-33.5 78.5q0 52 31.5 85.5t82.5 33.5z" />
    <glyph glyph-name="ellipsis" unicode="&#x2026;" horiz-adv-x="1000" 
d="M833 102q27 0 42.5 -16.5t15.5 -40.5t-16 -41t-41 -17t-41.5 16t-16.5 39q0 26 15.5 43t41.5 17zM499 102q27 0 42.5 -16.5t15.5 -40.5t-16 -41t-41 -17t-41.5 16t-16.5 39q0 26 15.5 43t41.5 17zM166 102q27 0 42.5 -16.5t15.5 -40.5t-16 -41t-41 -17t-41.5 16t-16.5 39
q0 26 15.5 43t41.5 17z" />
    <glyph glyph-name="perthousand" unicode="&#x2030;" horiz-adv-x="1270" 
d="M1125 387q-85 0 -146 -156q-21 -54 -21 -100q0 -78 76 -78q63 0 113 80.5t50 154.5q0 99 -72 99zM1124 416q43 0 72.5 -31t29.5 -100q0 -56 -25 -115.5t-73.5 -102.5t-105.5 -43q-59 0 -95.5 44.5t-36.5 105.5q0 94 76.5 168t157.5 74zM266 640q-38 0 -78.5 -44
t-69.5 -106q-31 -67 -31 -109q0 -27 20.5 -46t44.5 -19q75 0 129.5 68t63.5 173q-52 19 -50 75q-9 8 -29 8zM752 387q-85 0 -146 -156q-21 -54 -21 -100q0 -36 19.5 -57t56.5 -21q63 0 113 80.5t50 154.5q0 99 -72 99zM751 416q43 0 72.5 -31t29.5 -100q0 -90 -59.5 -175.5
t-144.5 -85.5q-59 0 -95.5 44.5t-36.5 105.5q0 94 76.5 168t157.5 74zM672 776q1 -1 5 -2t6 -3q7 -4 2 -11q-30 -51 -148 -266l-223 -407.5t-108 -199.5q-8 -16 -19 -18q-3 0 -20.5 -1t-22.5 -1q-8 0 -9.5 7.5t3.5 13.5q10 11 474 791q-137 -131 -239 -126
q-5 -102 -68.5 -182.5t-140.5 -80.5q-66 0 -100.5 43t-34.5 102q0 81 78.5 155t150.5 74q88 0 111 -87q63 -1 118.5 31.5t130.5 107.5q24 26 43 55q5 8 11 5z" />
    <glyph glyph-name="fraction" unicode="&#x2044;" horiz-adv-x="475" 
d="M18 -49l400 807l36 -18l-401 -806z" />
    <glyph glyph-name="Euro" unicode="&#x20ac;" horiz-adv-x="639" 
d="M353 746q73 0 130 -48t112 -146q4 -9 -4 -12q-8 -4 -10 -6q-1 -2 -6.5 -1t-6.5 4q-38 70 -93.5 124.5t-115.5 54.5q-30 0 -58 -9.5t-56.5 -35.5t-49.5 -65.5t-34 -104t-13 -147.5q0 -78 14.5 -138.5t37 -95.5t53 -57.5t58 -30.5t56.5 -8q83 0 133.5 45.5t92.5 143.5
q5 10 10 7q1 0 3.5 -2t5.5 -4l2 -1q1 0 2 -2t1 -5t-1 -6q-30 -99 -98 -158.5t-155 -59.5q-128 0 -220.5 96.5t-92.5 273.5q0 89 28 165.5t72.5 125t97.5 76t105 27.5zM117 393v38h285v-38h-285zM118 281v38h285v-38h-285z" />
    <glyph glyph-name="trademark" unicode="&#x2122;" horiz-adv-x="849" 
d="M434 413v319q0 1 13.5 1.5t27 -1t14.5 -2.5l107 -241l107 243q0 2 3 2l45 1l1 -323h-45v280l-116 -264q-3 -5 -7 -5h-4q-6 2 -7 5l-14.5 33l-16.5 37l-32.5 72.5l-53.5 121.5v-85v-76v-59v-42v-17h-22zM128 715l-104 1q1 1 0 5.5t-1 7t2 3.5q84 0 196.5 1.5t122.5 1.5
q1 0 0.5 -3.5l-1 -7t0.5 -6.5l-109 -1q-16 -1 -18.5 -9.5t-2.5 -46.5v-26l2 -222l-46 -2q0 251 -1 285q0 12 -7.5 15.5t-33.5 3.5z" />
    <glyph glyph-name="minus" unicode="&#x2212;" horiz-adv-x="592" 
d="M61 378h476v-51h-476v51z" />
    <glyph glyph-name="fi" unicode="&#xfb01;" horiz-adv-x="548" 
d="M177 75q-1 -16 6 -29t19 -16q22 -8 47 -8q12 0 12 -12q0 -14 -10 -14q-2 0 -15 1t-37 2t-54 1q-25 0 -47 -0.5t-32.5 -1t-13.5 -0.5q-10 0 -10 12q0 11 10 12q24 2 37 10q20 10 20 46q0 72 -2 324h-81q-9 0 -9 6v13q0 8 6 8l85 1q0 22 0.5 28t0.5 18q0 62 31 139
q28 76 86 113.5t116 37.5q49 0 72.5 -20t23.5 -48q0 -15 -13.5 -28t-31.5 -13q-21 0 -36 13q-5 5 -13.5 21t-20 26.5t-29.5 10.5q-25 0 -53 -30t-45 -83q-22 -70 -22 -182h172q9 0 31 4.5t39 8.5l18 4q14 3 14 -9v-366q0 -34 24 -45q11 -5 34 -5q14 -1 14 -13t-10 -12
q-4 0 -96.5 -1t-97.5 -1q-11 0 -11 10q0 12 10 13q39 4 49 9q18 10 18 48v249q0 31 -14.5 52.5t-38.5 21.5h-155q0 -48 1 -131t1.5 -134.5t0.5 -60.5z" />
    <glyph glyph-name="fl" unicode="&#xfb02;" horiz-adv-x="528" 
d="M236 -2l-2 25q12 0 12 -13q0 -12 -10 -12zM364 401h-190v-130v-136.5v-59.5q-1 -16 7.5 -29t20.5 -16q19 -7 31 -7t12 -13q0 -12 -10 -12q-2 0 -11 0.5t-29 1t-50 0.5q-25 0 -47 -0.5t-32.5 -1t-13.5 -0.5q-10 0 -10 12q0 11 10 12q24 2 37 10q20 10 20 46v324h-74
q-9 0 -9 6v13q0 8 6 8l77 1q1 11 2.5 47t4.5 59q5 41 20 78q33 80 86.5 116t109.5 36q29 0 47 -16q6 3 15 7t14 6.5l7 3.5q15 5 15 -9q0 -1 0.5 -336t0.5 -347q0 -38 25 -45q8 -3 31 -7q9 -1 11 -3t2 -8q0 -12 -9 -12q-4 0 -92 -1t-93 -1q-12 0 -12 10q0 12 10 13
q24 2 40 11q21 11 21 46q0 176 -1 323zM363 680h-2q-22 0 -35 20q-18 31 -36 31q-38 0 -65.5 -42t-40.5 -113q-6 -34 -10 -146q38 0 110 -0.5t80 -0.5v213q0 30 -1 38z" />
  </font>
</defs>
</svg>
